<?xml version="1.0" encoding="utf-8"?>
<!-- Generator: Adobe Illustrator 23.0.3, SVG Export Plug-In . SVG Version: 6.00 Build 0)  -->
<svg version="1.1" id="Layer_1" xmlns="http://www.w3.org/2000/svg" xmlns:xlink="http://www.w3.org/1999/xlink" x="0px" y="0px"
	 viewBox="0 0 800 68" style="enable-background:new 0 0 800 68;" xml:space="preserve">
<style type="text/css">
	.st0{fill:url(#SVGID_1_);}
	.st1{fill:#0B2852;}
</style>
<linearGradient id="SVGID_1_" gradientUnits="userSpaceOnUse" x1="400" y1="9.999847e-02" x2="400" y2="68">
	<stop  offset="0" style="stop-color:#2E476B"/>
	<stop  offset="1" style="stop-color:#0B2852"/>
</linearGradient>
<path class="st0" d="M800,68H0V55c0,0,22.6-10.9,32.7-21.9c3.3-3.7,8-6.5,15.1-5.9c1.8,0.2,13.8,2.6,16.4-0.4
	c5.7-6.3,11.9-6.1,19.4-3.3c10.7,4.1,21.9,6.7,32.6,10.8c9.6,3.7,18.7,4,27.5-1.7c6.4-4.1,22.2,5.3,35.7-1.4
	c4.3-2.4,7.5-2.7,11.5,0.2c5.6,4,11.2,6.2,18.8,3.9c3.5-1.1,9,2.7,12.9,5.3C228.4,44.5,242,40,250,37s16.9-11.7,16.9-11.7
	s9.4,6.3,17.4,6.6c8,0.3,17.7-11.4,22.7-9.8c1.5,0.5,2.4,2.7,6,2s16.9-24,21-24s20.2,19.9,28,21s8.5-5.3,13-7s25,18.3,34.7,20
	c8.9,1.6,14.4-4.6,18.3-7c15.5-9.5,26.8-10.3,49,0c5.9,2.7,17.7,7.9,24.2,6.7C507.8,32.5,514,15.5,519,16c5,0.5,20,9,20,9
	s11.9,4.1,17,4c8.8-0.1,49.8,3.1,49.8,3.1s16.6,9.8,21.7,9.6s24.1-22,29.5-21.7s26.5,11.7,32.4,11.5c5.9-0.3,16.9-7.4,22.6-7.5
	c18-0.3,53.9,24.3,56,25c6.3,2,11.1-2.9,17,0s11,9,15,6V68z"/>
<rect x="48.1" y="-80.2" class="st1" width="42.7" height="42.7"/>
</svg>
