<?xml version="1.0" encoding="utf-8"?>
<!-- Generator: Adobe Illustrator 23.0.3, SVG Export Plug-In . SVG Version: 6.00 Build 0)  -->
<svg version="1.1" id="Capa_1" xmlns="http://www.w3.org/2000/svg" xmlns:xlink="http://www.w3.org/1999/xlink" x="0px" y="0px"
	 viewBox="0 0 416 416" style="enable-background:new 0 0 416 416;" xml:space="preserve">
<style type="text/css">
	.st0{fill:#FFFFFF;}
	.st1{fill:#F78200;}
	.st2{fill:#2170A5;}
</style>
<g>
	<g>
		<path class="st0" d="M297.8,47.6c-21.1-19.8-57.1-24.4-89.8,8.3c-32.6-32.6-68.7-28.1-89.8-8.3c-24.5,23.1-25,61.7-1.3,85.4
			L208,224l91.1-91.1C322.7,109.3,322.3,70.7,297.8,47.6z M287.8,121.6L208,201.4l-79.8-79.8c-17.3-17.3-17-45.5,1-62.4
			C136.8,52,147.1,48,158,48c22.9,0,33.2,13.7,50,30.5C224.3,62.2,234.8,48,258,48c10.9,0,21.2,4,28.9,11.2
			C304.7,76.1,305.1,104.2,287.8,121.6z"/>
		<path class="st1" d="M287.8,121.6L208,201.4l-79.8-79.8c-17.3-17.3-17-45.5,1-62.4C136.8,52,147.1,48,158,48
			c22.9,0,33.2,13.7,50,30.5C224.3,62.2,234.8,48,258,48c10.9,0,21.2,4,28.9,11.2C304.7,76.1,305.1,104.2,287.8,121.6z"/>
	</g>
</g>
<g>
	<g>
		<path class="st0" d="M388.7,48c-14.1,0-25.8,10.6-27.2,24.6l-10.1,100c-4.9,1-9.4,3.4-12.8,6.9l-80.8,75.2
			c-11.1,10.1-17.6,24.6-17.7,39.7V384h96v-42.2c0-6.5,2.7-12.8,7.7-17.5l60.7-61.3c7.5-7.5,11.6-17.5,11.6-28.2V75.3
			C416,60.3,403.7,48,388.7,48z M400,234.8c0,6.4-2.5,12.4-7,16.9l-60.5,61.1c-8,7.5-12.5,18.1-12.5,29V368h-64v-73.5
			c0.1-10.6,4.6-20.8,12.5-28l81.1-75.5c2.2-2.2,5.2-3.3,8.3-2.9c1.8,0.2,4.3,0.8,6.4,2.9c2,2,3.1,4.6,3.1,7.4s-1.1,5.4-2.8,7.1
			l-62.4,56.6l10.8,11.8l62.7-56.9c5-5,7.7-11.6,7.7-18.7c0-7-2.7-13.7-7.7-18.6c-2.4-2.5-5.3-4.4-8.4-5.7l10.1-99.8
			c0.6-5.8,5.5-10.2,11.3-10.2c6.3,0,11.3,5.1,11.3,11.3V234.8z"/>
		<path class="st2" d="M400,75.3v159.5c0,6.4-2.5,12.4-7,16.9l-60.5,61.1c-8,7.5-12.5,18.1-12.5,29V368h-64v-73.5
			c0.1-10.6,4.6-20.8,12.5-28l81.1-75.5c2.2-2.2,5.2-3.3,8.3-2.9c1.8,0.2,4.3,0.8,6.4,2.9c2,2,3.1,4.6,3.1,7.4s-1.1,5.4-2.8,7.1
			l-62.4,56.6l10.8,11.8l62.7-56.9c5-5,7.7-11.6,7.7-18.7c0-7-2.7-13.7-7.7-18.6c-2.4-2.5-5.3-4.4-8.4-5.7l10.1-99.8
			c0.6-5.8,5.5-10.2,11.3-10.2C394.9,64,400,69.1,400,75.3z"/>
	</g>
</g>
<g>
	<g>
		<path class="st0" d="M158.3,254.7l-80.8-75.2c-3.5-3.5-8-5.9-12.8-6.9l-10.1-100C53.1,58.6,41.4,48,27.3,48C12.3,48,0,60.3,0,75.3
			v159.5c0,10.6,4.1,20.6,11.6,28.1l60.7,61.3c5,4.7,7.7,11,7.7,17.6V384h96v-89.6C175.9,279.3,169.4,264.9,158.3,254.7z M160,368
			H96v-26.2c0-10.9-4.6-21.5-12.5-29L23,251.8c-4.5-4.5-7-10.5-7-16.9V75.3C16,69.1,21.1,64,27.3,64c5.8,0,10.7,4.4,11.3,10.2
			L48.7,174c-3.1,1.3-5.9,3.2-8.4,5.6c-5,5-7.7,11.6-7.7,18.7c0,7,2.8,13.7,7.7,18.7l62.7,56.9l10.8-11.8l-62.4-56.6
			c-1.7-1.7-2.8-4.3-2.8-7.1c0-2.8,1.1-5.4,3.1-7.4c2.1-2.1,4.6-2.8,6.4-2.9c3.2-0.3,6.1,0.8,8.3,2.9l81.1,75.5
			c7.9,7.2,12.5,17.4,12.5,28V368z"/>
		<path class="st2" d="M160,294.5V368H96v-26.2c0-10.9-4.6-21.5-12.5-29L23,251.8c-4.5-4.5-7-10.5-7-16.9V75.3
			C16,69.1,21.1,64,27.3,64c5.8,0,10.7,4.4,11.3,10.2L48.7,174c-3.1,1.3-5.9,3.2-8.4,5.6c-5,5-7.7,11.6-7.7,18.7
			c0,7,2.8,13.7,7.7,18.7l62.7,56.9l10.8-11.8l-62.4-56.6c-1.7-1.7-2.8-4.3-2.8-7.1c0-2.8,1.1-5.4,3.1-7.4c2.1-2.1,4.6-2.8,6.4-2.9
			c3.2-0.3,6.1,0.8,8.3,2.9l81.1,75.5C155.4,273.7,159.9,283.8,160,294.5z"/>
	</g>
</g>
</svg>
