<svg xmlns="http://www.w3.org/2000/svg" viewBox="0 0 170.82 205.49"><defs><style>.cls-1{fill:#f78200;}.cls-2{fill:#ff931e;}.cls-3{fill:#2170a5;}.cls-4{fill:#fff;}</style></defs><title>discover</title><g id="Layer_2" data-name="Layer 2"><g id="Layer_1-2" data-name="Layer 1"><polygon class="cls-1" points="34.75 30 34.11 32.54 11.41 29.15 11.85 26.61 34.75 30"/><path class="cls-2" d="M39.34,29.44,36.75,29,10.53,24.08,8.19,41.68l25.56,2,2.5.2,2.51.2c.33-6,1.15-11.62,3.24-14.14Zm-5.23,3.1-22.7-3.39.44-2.54L34.75,30Z"/><path class="cls-2" d="M74.94,37.54l-1,7.79-7.71-.67h0l-4.93-.43-3.54-.31c-.77-1.42-1-3.23-.73-6.14a7.16,7.16,0,0,1,1.09-3.22L60.8,35l2.92.51Z"/><path class="cls-3" d="M164.08,193.78c-2.21,1.71-16,4.62-44.72,5.5-26.2.81-42-.71-45.15-2.07-1.94-5.4-3.82-23.85-4.18-32.24a5,5,0,0,0-4.52-4.79l-6-.63-9-1.9c.65-1.61,1.27-3.23,1.85-4.84l.05-.14c1.43-4,2.68-8.09,3.73-12.24a130.35,130.35,0,0,0,3.55-21.5c.09-1.09.17-2.18.23-3.28,1.16-.14,2.49-.34,4-.57a41.14,41.14,0,0,0,4.64-1,93.77,93.77,0,0,0,8.89-3c4.77-1.8,9.28-3.51,14.11-3.89,5.08-.39,8.7-1.2,10.61-3.78h0l.1-.15c.22-.35.78-1.24,1.35-2.17s1.38-2.21,1.64-2.64c0,.11,0,.22,0,.33,8,1,24,2,32.83-1.45a.3.3,0,0,1-.08-.08c.8.62,1.64,1.24,2.38,1.8l1.69,1.31c.29.23.47.37.48.39C159,130.75,167.69,183.06,164.08,193.78Z"/><path class="cls-4" d="M146.82,96.13a5.18,5.18,0,0,0-1.65-1.74c-.35-.23-.65-.45-.91-.65l-4.06-1.25c-.22-.2-.41-.39-.53-.52a8.53,8.53,0,0,1-.35-1,22.62,22.62,0,0,1-.67-3.57,42.31,42.31,0,0,1,0-7.55,19.89,19.89,0,0,1,3.44-9.77,27.65,27.65,0,0,1,2.51-2.89,4.31,4.31,0,0,0,2.44,1,2.47,2.47,0,0,0,1.44-.49c17.25-12.06,26.18-24.32,13.71-45C154.53,10.11,143.29,1.92,131.32.28c-8.47-1.15-16.57,1.23-22.22,6.55a14,14,0,0,1-8.25,3.86c-4.26.48-9.4-.66-15.71-3.49a23.55,23.55,0,0,0-2.52-.93c-.68-.23-1.34-.44-1.86-.68s-.86-.43-1.3-.66c-2.29-1.22-7-3.74-10.35,1.25a8.46,8.46,0,0,0-1.47,4.7c0,3.93,2.84,7.23,4.27,8.91A22.53,22.53,0,0,0,78,24.32c.73.42,1.46.84,2.15,1.28s1.61,1,2.4,1.39a17.78,17.78,0,0,1,3.28,2.09A7.47,7.47,0,0,0,88,30.31c-.17.26-.35.51-.53.75l-.09.13c-.39.55-.78,1.11-1.09,1.61a7,7,0,0,0-1.19,3.29v.3A7.58,7.58,0,0,0,86.82,41a48.19,48.19,0,0,1-6.14,6.61L83,30.43l-8.09-1.51-.2,1.47L67.5,29.12c0-.14,0-.28,0-.42a9.5,9.5,0,0,0-1.63-5A9,9,0,0,0,60,19.77c-4.47-1-10.74.26-16.65,3.29h0l-29-5.39.32-2.39-9.8-1.93L0,50.22l10,.7.28-2.05,23.31,1.82c0,1.55,0,3.1,0,4.62,0,4.63,0,10.4-.67,11.67-2.33,4.49-4.89,8.88-7.37,13.13-8.74,15-17,29.15-16.56,48.37.21,9.08,3.7,14.12,12.05,17.41,3,1.17,5.93,2.62,9.06,4.16a95.24,95.24,0,0,0,14.54,6.16,1.67,1.67,0,0,1-.08.2,5,5,0,0,0,.19,4.29,5.11,5.11,0,0,0,3.43,2.59l10.13,2.14.51.08,5.31.55c.37,6.75,2.18,28.08,4.89,34.16.87,2,2.88,3.8,17.63,4.74,5.47.35,12,.53,19,.53,4,0,8.14-.06,12.35-.17,12.54-.34,24.24-1.17,33-2.32,14-1.85,17.6-4.06,18.65-6.79C174.43,183.59,164.62,127.23,146.82,96.13Zm-108.06-52-2.51-.2-2.5-.2-25.56-2,2.34-17.6L36.75,29l2.59.48,2.66.5C39.91,32.46,39.09,38.11,38.76,44.08ZM85,22.6c-.74-.41-1.44-.79-2.09-1.2s-1.55-.95-2.34-1.4a18.92,18.92,0,0,1-4.81-3.47C72.65,13,72,10.91,73.29,8.93c.3-.45.49-.74,1-.74a7.9,7.9,0,0,1,2.86,1.15c.53.29,1,.56,1.57.8a23.93,23.93,0,0,0,2.39.88,19.56,19.56,0,0,1,2,.74c6,2.7,11.23,4,15.82,4a20.54,20.54,0,0,0,2.51-.14A18.85,18.85,0,0,0,111,11.8a19.4,19.4,0,0,0,1.57-1.33c4.61-4.34,11-6.21,18.12-5.23C141.11,6.67,151,14,157.87,25.32c8.79,14.57,5.66,23.55-4.87,32.62v0c-1.82,1.56-3.86,3.13-6.09,4.73l-.61-.51c-.55-.46-1.2-1-1.91-1.64l-.12-.11c-1.24-1.08-2.65-2.34-4-3.53-7-6.27-16.61-14.86-23.5-19.08a119.85,119.85,0,0,0-10.63-5.74c-.48-.23-1-.46-1.42-.67l-.36-.17L103,30.6l-.94-.42c-2.6-1.15-4.84-2.06-6.47-2.68l-.4-.16c-1.25-.48-2.08-.78-2.36-.88h0l-.08,0-.38-.1a17.54,17.54,0,0,1-2-.51,5,5,0,0,1-1.15-.49A21.52,21.52,0,0,0,85,22.6ZM57,37.77a7.16,7.16,0,0,1,1.09-3.22L60.8,35l2.92.51,11.22,2-1,7.79-7.71-.67h0l-4.93-.43-3.54-.31C57,42.49,56.75,40.68,57,37.77Zm-6.91,64.09c.22-1.83.45-3.72.5-5.72.16-6.24,2.8-14,5.35-21.58,1-3,2.1-6.2,3-9.16,1.35-4.61,5.4-9.49,6.56-10.74a5.75,5.75,0,0,0,2.81-2.8l3.51.31-.17,1.25,5.4.43a6.6,6.6,0,0,0,2.15,4.06A11.93,11.93,0,0,0,80.44,59a.69.69,0,0,1-.11.13c-2.5,2.92-1.83,5.06-.79,6.37a6.71,6.71,0,0,0-.26,1.18v.14a4.45,4.45,0,0,0,1.22,3.33c.27.28.56.53.83.77v0c-.18.41-.35.82-.49,1.25a10.52,10.52,0,0,0-.35,4.63,7.39,7.39,0,0,0,7.58,6.72,102.16,102.16,0,0,0,10.68-1c2.82,3.23,2.15,10.64,1.64,14.62a5,5,0,0,0-3,2.5c-.12.24-1,1.06-6.33,1.48-5.7.44-10.82,2.38-15.77,4.26A86.56,86.56,0,0,1,67,108.31a36.37,36.37,0,0,1-4,.85c-1.77.26-3.3.49-4.52.62a5,5,0,0,0-4.13,3.09C49,111.21,49.34,108,50.08,101.86Zm114,91.92c-2.21,1.71-16,4.62-44.72,5.5-26.2.81-42-.71-45.15-2.07-1.94-5.4-3.82-23.85-4.18-32.24a5,5,0,0,0-4.52-4.79l-6-.63-9-1.9c.65-1.61,1.27-3.23,1.85-4.84l.05-.14c1.43-4,2.68-8.09,3.73-12.24a130.35,130.35,0,0,0,3.55-21.5c.09-1.09.17-2.18.23-3.28,1.16-.14,2.49-.34,4-.57a41.14,41.14,0,0,0,4.64-1,93.77,93.77,0,0,0,8.89-3c4.77-1.8,9.28-3.51,14.11-3.89,5.08-.39,8.7-1.2,10.61-3.78h0l.1-.15c.22-.35.78-1.24,1.35-2.17s1.38-2.21,1.64-2.64c0,.11,0,.22,0,.33,8,1,24,2,32.83-1.45a.3.3,0,0,1-.08-.08c.8.62,1.64,1.24,2.38,1.8l1.69,1.31c.29.23.47.37.48.39C159,130.75,167.69,183.06,164.08,193.78Z"/><path class="cls-3" d="M153,57.94v0c-1.82,1.56-3.86,3.13-6.09,4.73l-.61-.51c-.55-.46-1.2-1-1.91-1.64l-.12-.11c-1.24-1.08-2.65-2.34-4-3.53-7-6.27-16.61-14.86-23.5-19.08a119.85,119.85,0,0,0-10.63-5.74c-.48-.23-1-.46-1.42-.67l-.36-.17L103,30.6l-.94-.42c-2.6-1.15-4.84-2.06-6.47-2.68l-.4-.16c-1.25-.48-2.08-.78-2.36-.88h0l-.08,0-.38-.1a17.54,17.54,0,0,1-2-.51,5,5,0,0,1-1.15-.49A21.52,21.52,0,0,0,85,22.6c-.74-.41-1.44-.79-2.09-1.2s-1.55-.95-2.34-1.4a18.92,18.92,0,0,1-4.81-3.47C72.65,13,72,10.91,73.29,8.93c.3-.45.49-.74,1-.74a7.9,7.9,0,0,1,2.86,1.15c.53.29,1,.56,1.57.8a23.93,23.93,0,0,0,2.39.88,19.56,19.56,0,0,1,2,.74c6,2.7,11.23,4,15.82,4a20.54,20.54,0,0,0,2.51-.14A18.85,18.85,0,0,0,111,11.8a19.4,19.4,0,0,0,1.57-1.33c4.61-4.34,11-6.21,18.12-5.23C141.11,6.67,151,14,157.87,25.32,166.66,39.89,163.53,48.87,153,57.94Z"/><polygon class="cls-4" points="34.75 30 34.11 32.54 11.41 29.15 11.85 26.61 34.75 30"/></g></g></svg>