<svg xmlns="http://www.w3.org/2000/svg" viewBox="0 0 196.66 200"><defs><style>.cls-1{fill:#2170a5;}.cls-2{fill:#fff;}.cls-3{fill:#f78200;}</style></defs><title>dream</title><g id="Layer_2" data-name="Layer 2"><g id="Layer_1-2" data-name="Layer 1"><path id="Shape" class="cls-1" d="M30,66.51a3.33,3.33,0,1,0,3.32,3.33A3.33,3.33,0,0,0,30,66.51Zm35.59-46.1a3.34,3.34,0,0,0-3.25-.74A41.38,41.38,0,0,0,44.09,29.9,50.72,50.72,0,0,0,33.55,47.18a78.65,78.65,0,0,0-2.47,9l-.34,1.45a3.33,3.33,0,1,0,6.49,1.5l.34-1.44a75.11,75.11,0,0,1,2.22-8.23,44,44,0,0,1,9.15-15A34.84,34.84,0,0,1,64.31,26a3.32,3.32,0,0,0,2.27-2.43A3.37,3.37,0,0,0,65.61,20.41ZM133.28,100H100.2a3.4,3.4,0,0,0-3.44,3.11,3.32,3.32,0,0,0,3.31,3.53h33.08a3.41,3.41,0,0,0,3.44-3.12A3.32,3.32,0,0,0,133.28,100Zm41.13-49.25a3.34,3.34,0,0,1-2-4.87,25.11,25.11,0,0,0,3.35-12.54A27.51,27.51,0,0,0,147.43,6.77a28.44,28.44,0,0,0-25.14,14.31,3.32,3.32,0,0,1-3.67,1.64,3.09,3.09,0,0,1-.89-.34,18.27,18.27,0,0,0-9-2.31,17.23,17.23,0,0,0-17.78,16.6,15.66,15.66,0,0,0,2.85,9A3.33,3.33,0,0,1,92,50.81a22.13,22.13,0,0,0-9,5.07,19.21,19.21,0,0,0-6.16,14,19.66,19.66,0,0,0,9.07,16.32c.16-.1.31-.22.47-.3a22.16,22.16,0,0,1,38.94-20.1,15.77,15.77,0,0,1,20.27,10.74H170a3.32,3.32,0,0,1,3.31,3.53,3.4,3.4,0,0,1-3.44,3.11H146.09a16.72,16.72,0,0,1-.67,2.88,18.5,18.5,0,0,1,4,3c.24.24.42.52.63.77h18.49A22,22,0,0,0,183.67,84a19.3,19.3,0,0,0,6.17-14A20.22,20.22,0,0,0,174.41,50.76Z"/><path class="cls-1" d="M33.34,69.84A3.33,3.33,0,1,1,30,66.51,3.32,3.32,0,0,1,33.34,69.84Z"/><path class="cls-1" d="M65.61,20.41a3.37,3.37,0,0,1,1,3.2A3.32,3.32,0,0,1,64.31,26a34.84,34.84,0,0,0-15.37,8.44,44,44,0,0,0-9.15,15,75.11,75.11,0,0,0-2.22,8.23l-.34,1.44a3.33,3.33,0,1,1-6.49-1.5l.34-1.45a78.65,78.65,0,0,1,2.47-9A50.72,50.72,0,0,1,44.09,29.9,41.38,41.38,0,0,1,62.36,19.67,3.34,3.34,0,0,1,65.61,20.41Z"/><path class="cls-2" d="M136.59,103.53a3.41,3.41,0,0,1-3.44,3.12H100.07a3.32,3.32,0,0,1-3.31-3.53A3.4,3.4,0,0,1,100.2,100h33.08A3.32,3.32,0,0,1,136.59,103.53Z"/><path class="cls-3" d="M189.84,69.91a19.3,19.3,0,0,1-6.17,14,22,22,0,0,1-15.14,5.9H150c-.21-.25-.39-.53-.63-.77a18.5,18.5,0,0,0-4-3,16.72,16.72,0,0,0,.67-2.88h23.79a3.4,3.4,0,0,0,3.44-3.11A3.32,3.32,0,0,0,170,76.57H145.59a15.77,15.77,0,0,0-20.27-10.74,22.16,22.16,0,0,0-38.94,20.1c-.16.08-.31.2-.47.3a19.66,19.66,0,0,1-9.07-16.32,19.21,19.21,0,0,1,6.16-14,22.13,22.13,0,0,1,9-5.07,3.33,3.33,0,0,0,1.81-5.11,15.66,15.66,0,0,1-2.85-9,17.23,17.23,0,0,1,17.78-16.6,18.27,18.27,0,0,1,9,2.31,3.09,3.09,0,0,0,.89.34,3.32,3.32,0,0,0,3.67-1.64A28.44,28.44,0,0,1,147.43,6.77a27.51,27.51,0,0,1,28.31,26.58,25.11,25.11,0,0,1-3.35,12.54,3.34,3.34,0,0,0,2,4.87A20.22,20.22,0,0,1,189.84,69.91Z"/><path class="cls-2" d="M180.05,45.68a31.88,31.88,0,0,0,2.48-12.34A34.26,34.26,0,0,0,147.47,0,36.42,36.42,0,0,0,130,4.46,75.43,75.43,0,0,0,100.07.13,222,222,0,0,0,67.83,4.75c-15,3-25.95,8.27-33.4,16.15A63.77,63.77,0,0,0,21.06,42.71a87.24,87.24,0,0,0-3,10.63l-.33,1.41a43,43,0,0,1-2.87,7.6c-.67,1.51-1.35,3-2,4.61a11.1,11.1,0,0,0-.86,5.57A12.73,12.73,0,0,0,16.93,80c1.63,1.49,2.7,2.54,2.71,3.45a5.52,5.52,0,0,1-.56,1.45A129.2,129.2,0,0,1,4.49,108.61C2.07,111.54-.45,115,.07,118.4a10.3,10.3,0,0,0,4.84,6.25,27.15,27.15,0,0,0,3.47,2c1.44.73,3.85,2,4,2.82a5.76,5.76,0,0,1-.39,3.38c-.5,1.07-1,2-1.47,2.77-1.22,2.16-3.26,5.77-.18,8.29.73.66,2,1.63,3.11,2.5a8.32,8.32,0,0,0-1.09,4.81,4.79,4.79,0,0,0,2,3.28c.75.52,1.53,1,2.31,1.41,2,1.13,2.75,1.65,3,2.7a9,9,0,0,1-.33,4c-.2.89-.39,1.79-.5,2.66a19.88,19.88,0,0,0,1.09,9A12.3,12.3,0,0,0,34.45,183a252.61,252.61,0,0,0,28.1-8.4C70.06,179,74.8,192.44,76,197.47A3.32,3.32,0,0,0,79.28,200l83.65-.23a3.33,3.33,0,0,0,3.17-4.33,25.73,25.73,0,0,0-3.37-6.34,31.92,31.92,0,0,1-2.16-3.59,64.28,64.28,0,0,1-3.76-9.5,111.18,111.18,0,0,1-3.95-19.71A56.55,56.55,0,0,1,157.24,127a75.09,75.09,0,0,1,9.06-14.3c2-2.7,4.08-5.5,5.94-8.44a54.13,54.13,0,0,0,4.43-8.72,28.41,28.41,0,0,0,11.72-6.63A25.89,25.89,0,0,0,196.66,70,26.72,26.72,0,0,0,180.05,45.68ZM30,73.17a3.33,3.33,0,1,1,3.32-3.33A3.32,3.32,0,0,1,30,73.17ZM66.58,23.61A3.32,3.32,0,0,1,64.31,26a34.84,34.84,0,0,0-15.37,8.44,44,44,0,0,0-9.15,15,75.11,75.11,0,0,0-2.22,8.23l-.34,1.44a3.33,3.33,0,1,1-6.49-1.5l.34-1.45a78.65,78.65,0,0,1,2.47-9A50.72,50.72,0,0,1,44.09,29.9,41.38,41.38,0,0,1,62.36,19.67a3.34,3.34,0,0,1,3.25.74A3.37,3.37,0,0,1,66.58,23.61Zm80.57,82.67a11.38,11.38,0,0,1-10.48,7h-42a11.33,11.33,0,0,1-6.77-20.43l0,0A11.07,11.07,0,0,1,91.58,91a3.32,3.32,0,0,0,2-4.79,15.55,15.55,0,1,1,27.47-14.58,3.37,3.37,0,0,0,3.85,1.7,3.31,3.31,0,0,0,.81-.37,9,9,0,0,1,4.67-1.26A9.25,9.25,0,0,1,139.63,81a9,9,0,0,1-1.51,5,3.38,3.38,0,0,0,.77,4.55,3.23,3.23,0,0,0,1,.5,11.37,11.37,0,0,1,7.22,15.23ZM183.67,84a22,22,0,0,1-15.14,5.9H150c-.21-.25-.39-.53-.63-.77a18.5,18.5,0,0,0-4-3,16.72,16.72,0,0,0,.67-2.88h23.79a3.4,3.4,0,0,0,3.44-3.11A3.32,3.32,0,0,0,170,76.57H145.59a15.77,15.77,0,0,0-20.27-10.74,22.16,22.16,0,0,0-38.94,20.1c-.16.08-.31.2-.47.3a19.66,19.66,0,0,1-9.07-16.32,19.21,19.21,0,0,1,6.16-14,22.13,22.13,0,0,1,9-5.07,3.33,3.33,0,0,0,1.81-5.11,15.66,15.66,0,0,1-2.85-9,17.23,17.23,0,0,1,17.78-16.6,18.27,18.27,0,0,1,9,2.31,3.09,3.09,0,0,0,.89.34,3.32,3.32,0,0,0,3.67-1.64A28.44,28.44,0,0,1,147.43,6.77a27.51,27.51,0,0,1,28.31,26.58,25.11,25.11,0,0,1-3.35,12.54,3.34,3.34,0,0,0,2,4.87,20.22,20.22,0,0,1,15.43,19.15A19.3,19.3,0,0,1,183.67,84Z"/><path class="cls-1" d="M144.7,93.91a11.49,11.49,0,0,0-4.77-2.86,3.23,3.23,0,0,1-1-.5,3.38,3.38,0,0,1-.77-4.55,9,9,0,0,0,1.51-5,9.25,9.25,0,0,0-9.24-9.25A9,9,0,0,0,125.72,73a3.31,3.31,0,0,1-.81.37,3.37,3.37,0,0,1-3.85-1.7A15.55,15.55,0,0,0,93.59,86.22a3.32,3.32,0,0,1-2,4.79A11.07,11.07,0,0,0,88,92.83l0,0a11.33,11.33,0,0,0,6.77,20.43h42a11.36,11.36,0,0,0,8-19.38Zm-11.55,12.74H100.07a3.32,3.32,0,0,1-3.31-3.53A3.4,3.4,0,0,1,100.2,100h33.08a3.32,3.32,0,0,1,3.31,3.52A3.41,3.41,0,0,1,133.15,106.65Z"/><path class="cls-2" d="M129.41,28.63a3.35,3.35,0,0,0,4.53-1.31,15.21,15.21,0,0,1,13.53-7.48,14.29,14.29,0,0,1,15.06,13.34A11.89,11.89,0,0,1,161,39.11a3.34,3.34,0,0,0,5.78,3.33,18.58,18.58,0,0,0,2.47-9.26,20.94,20.94,0,0,0-21.73-20A21.86,21.86,0,0,0,128.1,24.1,3.34,3.34,0,0,0,129.41,28.63Z"/><path class="cls-2" d="M114.6,28a11.88,11.88,0,0,0-5.83-1.5,10.64,10.64,0,0,0-11.16,10,9,9,0,0,0,1.66,5.22,3.34,3.34,0,0,0,6.11-1.62,3.4,3.4,0,0,0-.67-2.23,2.4,2.4,0,0,1-.44-1.37c0-1.81,2.06-3.33,4.5-3.33a5.13,5.13,0,0,1,2.57.66A3.33,3.33,0,1,0,114.6,28Z"/><path class="cls-2" d="M136.59,103.53a3.41,3.41,0,0,1-3.44,3.12H100.07a3.32,3.32,0,0,1-3.31-3.53A3.4,3.4,0,0,1,100.2,100h33.08A3.32,3.32,0,0,1,136.59,103.53Z"/><path class="cls-1" d="M66.58,23.61A3.32,3.32,0,0,1,64.31,26a34.84,34.84,0,0,0-15.37,8.44,44,44,0,0,0-9.15,15,75.11,75.11,0,0,0-2.22,8.23l-.34,1.44a3.33,3.33,0,1,1-6.49-1.5l.34-1.45a78.65,78.65,0,0,1,2.47-9A50.72,50.72,0,0,1,44.09,29.9,41.38,41.38,0,0,1,62.36,19.67a3.34,3.34,0,0,1,3.25.74A3.37,3.37,0,0,1,66.58,23.61Z"/><path class="cls-1" d="M33.34,69.84A3.33,3.33,0,1,1,30,66.51,3.32,3.32,0,0,1,33.34,69.84Z"/></g></g></svg>