<svg xmlns="http://www.w3.org/2000/svg" viewBox="0 0 193.27 186.41"><defs><style>.cls-1{fill:#dbe6fd;}.cls-2{fill:#f78200;}.cls-3{fill:#2170a5;}.cls-4{fill:#fff;}</style></defs><title>explore</title><g id="Layer_2" data-name="Layer 2"><g id="Layer_1-2" data-name="Layer 1"><path class="cls-1" d="M124.1,56.94a8.54,8.54,0,1,1-2.88-3A40.47,40.47,0,0,0,66,113.12l1.92-3A4.68,4.68,0,0,1,72,107.84a4.75,4.75,0,0,1,4.12,2.29l8,12.44,31-48.12a7.22,7.22,0,0,1,12.18,0l6.87,10.69c0-.5,0-1,0-1.51A40.3,40.3,0,0,0,124.1,56.94ZM68,122.39l-.09.15.43.07ZM124.1,56.94a8.54,8.54,0,1,1-2.88-3A40.47,40.47,0,0,0,66,113.12l1.92-3A4.68,4.68,0,0,1,72,107.84a4.75,4.75,0,0,1,4.12,2.29l8,12.44,31-48.12a7.22,7.22,0,0,1,12.18,0l6.87,10.69c0-.5,0-1,0-1.51A40.3,40.3,0,0,0,124.1,56.94Zm0,0a8.54,8.54,0,1,1-2.88-3A40.47,40.47,0,0,0,66,113.12l1.92-3A4.68,4.68,0,0,1,72,107.84a4.75,4.75,0,0,1,4.12,2.29l8,12.44,31-48.12a7.22,7.22,0,0,1,12.18,0l6.87,10.69c0-.5,0-1,0-1.51A40.3,40.3,0,0,0,124.1,56.94Z"/><path class="cls-2" d="M134.17,83.63c0,.51,0,1,0,1.51l-6.87-10.69a7.22,7.22,0,0,0-12.18,0l-31,48.12-8-12.44A4.75,4.75,0,0,0,72,107.84a4.68,4.68,0,0,0-4.13,2.29l-1.92,3A40.47,40.47,0,0,1,121.22,54a8.58,8.58,0,1,0,2.88,3A40.3,40.3,0,0,1,134.17,83.63Z"/><path class="cls-3" d="M68,122.39l-.09.15.43.07Z"/><path class="cls-4" d="M192.16,175.41l-39.22-61a99.58,99.58,0,0,0,33-32l1-1.59-1-1.57a113.82,113.82,0,0,0-18.32-22.42l17-15.23a3,3,0,0,0-4-4.47L163.14,52.75a103.53,103.53,0,0,0-26.56-16.24l11.27-21.24a3,3,0,1,0-5.3-2.81L131,34.33A114.35,114.35,0,0,0,96.49,27.9L97.1,3.08a3,3,0,1,0-6-.15l-.61,24.89a108.46,108.46,0,0,0-37,6.55L41.87,12.46a3,3,0,1,0-5.3,2.81L47.91,36.66a96.68,96.68,0,0,0-23.61,15L5.82,35.07a3,3,0,0,0-4,4.47l18,16.18A123.74,123.74,0,0,0,1,79.19L0,80.77,1.35,83c6.88,11.16,21,34.08,56.08,43.43L23.69,178.88a4.83,4.83,0,0,0-.79,2.62,4.62,4.62,0,0,0,.59,2.29,4.87,4.87,0,0,0,1.83,1.83,4.59,4.59,0,0,0,2.49.79H186.07a6.67,6.67,0,0,0,6.28-3.8,7,7,0,0,0,.92-3.4A7.13,7.13,0,0,0,192.16,175.41ZM7.07,80.81A118.42,118.42,0,0,1,24.25,59.69c1.46-1.41,3-2.76,4.48-4A89.11,89.11,0,0,1,50.67,41.85c1.84-.8,3.71-1.55,5.61-2.23a103.22,103.22,0,0,1,34.07-5.8h1.5q2.27,0,4.5.09a108.87,108.87,0,0,1,31.75,5.8c1.91.67,3.8,1.38,5.65,2.16a97.65,97.65,0,0,1,24.85,15q2.33,1.91,4.55,4a107,107,0,0,1,16.72,20,94.42,94.42,0,0,1-30.18,28.55L139.21,93A46.49,46.49,0,0,0,95.36,37.17c-.56,0-1.12,0-1.69,0-.79,0-1.58,0-2.36.06a46.46,46.46,0,0,0-28.64,81.05L60.87,121C27.65,112.78,13.86,91.79,7.07,80.81Zm113-20.76a3.41,3.41,0,0,1,.22,1.2,3.56,3.56,0,1,1-7.11,0,3.52,3.52,0,0,1,.87-2.32l.07-.09A3.56,3.56,0,0,1,120,60v0Zm-3.34-7.35a8.56,8.56,0,1,0,7.39,4.24,40.3,40.3,0,0,1,10.07,26.69c0,.51,0,1,0,1.51l-6.87-10.69a7.22,7.22,0,0,0-12.18,0l-31,48.12-8-12.44A4.75,4.75,0,0,0,72,107.84a4.68,4.68,0,0,0-4.13,2.29l-1.92,3A40.47,40.47,0,0,1,121.22,54,8.56,8.56,0,0,0,116.71,52.7ZM72.57,144.48l-1.87,1.88L58.53,158.54,50.2,150.2,64.42,128l1.75-2.72,1.75-2.74h0l.09-.15,1.61-2.51,1.63-2.54,1.31-2,2.84,4.48h0L78,123.9l.28.44,1.74,2.74.8,1.25.69,1.09.52.81,9.13,14.25Zm49.71-18.21-.83.86h0L100.7,148.51l-12-18-.44-.66,0,0,1.51-2.3.34-.51,1.63-2.48.26-.4L122.28,78l10.35,16.67h0l2.09,3.35,2,3.19,7.08,11.39,1.62,2.61,1.55,2.5,5.3,8.53Z"/><path class="cls-2" d="M120.27,61.25a3.56,3.56,0,1,1-7.11,0,3.52,3.52,0,0,1,.87-2.32l.07-.09A3.56,3.56,0,0,1,120,60v0A3.41,3.41,0,0,1,120.27,61.25Z"/><path class="cls-3" d="M179.87,80.79a94.42,94.42,0,0,1-30.18,28.55L139.21,93A46.49,46.49,0,0,0,95.36,37.17c-.56,0-1.12,0-1.69,0-.79,0-1.58,0-2.36.06a46.46,46.46,0,0,0-28.64,81.05L60.87,121c-33.22-8.25-47-29.24-53.8-40.22A118.42,118.42,0,0,1,24.25,59.69c1.46-1.41,3-2.76,4.48-4A89.11,89.11,0,0,1,50.67,41.85c1.84-.8,3.71-1.55,5.61-2.23a103.22,103.22,0,0,1,34.07-5.8h1.5q2.27,0,4.5.09a108.87,108.87,0,0,1,31.75,5.8c1.91.67,3.8,1.38,5.65,2.16a97.65,97.65,0,0,1,24.85,15q2.33,1.91,4.55,4A107,107,0,0,1,179.87,80.79Z"/><polygon class="cls-3" points="152.25 126.27 122.28 126.27 121.45 127.13 121.44 127.13 100.7 148.51 88.71 130.48 88.27 129.82 88.25 129.79 89.76 127.49 90.1 126.98 91.73 124.5 91.99 124.1 122.28 78.02 132.63 94.69 132.63 94.7 134.72 98.05 136.7 101.24 143.78 112.63 145.4 115.24 146.95 117.74 152.25 126.27"/><path class="cls-3" d="M91.2,144.48H72.57l-1.87,1.88L58.53,158.54,50.2,150.2,64.42,128l1.75-2.72,1.75-2.74h0l.43.07-.34-.22,1.61-2.51,1.63-2.54,1.31-2,2.84,4.48h0L78,123.9l.28.44,1.74,2.74.8,1.25.69,1.09.52.81Z"/><path class="cls-4" d="M68.36,122.61l-.43-.07.09-.15Z"/></g></g></svg>