<svg xmlns="http://www.w3.org/2000/svg" viewBox="0 0 292.63 166.04"><defs><style>.cls-1{fill:#f78201;}.cls-2{fill:#2271a5;}</style></defs><title>logov</title><g id="Layer_2" data-name="Layer 2"><g id="Layer_1-2" data-name="Layer 1"><path class="cls-1" d="M148.7,0a2,2,0,0,0,1,.1A43.32,43.32,0,0,1,159.81,2,47.3,47.3,0,0,1,177,11.43a50.84,50.84,0,0,1,4.46,4.35A50.34,50.34,0,0,1,192,33.94a47.6,47.6,0,0,1,1.87,7.82c.23,1.5.39,3,.51,4.51s.07,2.88.1,4.31a.37.37,0,0,1-.1.25l-.56-1.34q-2.35-5.58-4.69-11.15a1.29,1.29,0,0,0-.6-.68q-4.47-2.47-8.94-5c-.78-.43-1.57-.86-2.34-1.31a.45.45,0,0,0-.65.08c-.72.75-1.48,1.46-2.21,2.2-1,1-1.9,1.93-2.85,2.89-.45.45-.9.88-1.34,1.33a1.17,1.17,0,0,1-.44.26c-1.67.63-3.32,1.28-5,1.87a13.38,13.38,0,0,0-2.29,1.25c-1.09.64-2.15,1.34-3.27,1.9a1,1,0,0,0-.5.7,28.08,28.08,0,0,0-.81,3,5.57,5.57,0,0,1-.32,1c0-.53.06-1.06.11-1.58.11-1.23.24-2.46.32-3.69a.85.85,0,0,1,.44-.76c.64-.39,1.24-.81,1.88-1.18s.82-1.13,1.17-1.73c.06-.1,0-.19-.08-.26a14.14,14.14,0,0,1-3.39-6c-.43-1.25-.79-2.51-1.14-3.78A12.39,12.39,0,0,0,154.2,24c-1-1.15-2.08-2.2-3.11-3.3a14.08,14.08,0,0,1-1.94-2.6,28.44,28.44,0,0,0-2.52-3.8l0,0c-.41-.51-.41-.51-.86,0-1.82,1.88-3.63,3.77-5.45,5.64a2.2,2.2,0,0,0-.52.85c-.35,1-.69,2-1.09,3a.84.84,0,0,0,.11.88,10.55,10.55,0,0,0,1.29,1.53,3.44,3.44,0,0,1,1.08,2.4c.07,1.13.24,2.26.36,3.39a.43.43,0,0,1-.05.36c-.3-.77-.6-1.52-.91-2.26-.1-.26-.23-.51-.35-.76a1.35,1.35,0,0,0-.68-.69,9.87,9.87,0,0,1-1.46-.95l-.54-.39c-.21.07-.21.24-.25.36a12.54,12.54,0,0,1-1.53,2.87c-1.86,3.08-3.75,6.15-5.71,9.16-1.06,1.64-2.19,3.24-3.36,4.8a78.24,78.24,0,0,0-5.09,8,1.72,1.72,0,0,1-.81.79c-2.5,1.15-5,2.3-7.46,3.51-1,.5-1.93,1.15-2.9,1.74l-.89.55c-.09.06-.19.15-.31.06h0c.45-.69,1-1.29,1.52-2s1.16-1.49,1.73-2.24a1.26,1.26,0,0,1,.49-.4l5.77-2.76a3.38,3.38,0,0,1,.46-.24A3.2,3.2,0,0,0,121,49.88c1.69-2.62,3.42-5.23,5.12-7.84a1.44,1.44,0,0,0,.29-.51c-.1-.14-.2-.05-.3,0a31.18,31.18,0,0,1-3.53,1c-.3,0-.6.1-.91.13a1.39,1.39,0,0,1-1.07-.36c-1.38-1.14-2.73-2.33-4.08-3.52l-2.8-2.49c-.3-.26-.32-.27-.61.05-.81.91-1.65,1.79-2.39,2.76a12.12,12.12,0,0,0-1.07,2c-1.1,2.24-2.21,4.49-3.29,6.74-.47,1-.84,2-1.31,3-1.16,2.42-2.5,4.73-3.78,7.07-.49.89-1,1.77-1.49,2.65a1,1,0,0,1-.33.44,6.24,6.24,0,0,1-.34-1.5,53.18,53.18,0,0,1-.8-12.52,48.92,48.92,0,0,1,1.53-9.84,50.9,50.9,0,0,1,5.8-13.78,47.84,47.84,0,0,1,4.9-6.73A48.63,48.63,0,0,1,123.06,6.17,46.18,46.18,0,0,1,140.35.35a27.7,27.7,0,0,1,3.28-.26A.42.42,0,0,0,144,0Z"/><path class="cls-2" d="M145.67,37.71v.62q0,14.09,0,28.17a1.61,1.61,0,0,1-.45,1.17c-1.37,1.54-2.73,3.1-4.09,4.65q-1.62,1.83-3.23,3.67a.26.26,0,0,0-.12.23h17.42c-.17-.22-.28-.4-.42-.55-.91-1-1.82-2-2.72-3-1.6-1.75-3.19-3.52-4.8-5.27a.74.74,0,0,1-.21-.59c0-.1,0-.2,0-.3V37.83c.21.05.22.22.28.35.79,1.7,1.56,3.39,2.34,5.09,1.47,3.19,3,6.37,4.4,9.58a18.33,18.33,0,0,1,.72,2.46c.83,3,1.65,6.07,2.47,9.11a1,1,0,0,0,.46.64l13.79,8.8c1.08.69,2.17,1.36,3.24,2.08a1.26,1.26,0,0,0,1.13.24,6.54,6.54,0,0,1,.83-.14c.09-.15,0-.25,0-.36,0-.43.1-.66.53-.69s.53-.29.63-.68a16.87,16.87,0,0,0,.13-3.69c0-.27,0-.55,0-.83a1.94,1.94,0,0,0-.14-.88c-.51-1-.55-2.24-1-3.3a7.75,7.75,0,0,1-.5-3.06c0-.52,0-1,0-1.56a1.17,1.17,0,0,1,.1-.64.75.75,0,0,0,.05-.47,19.2,19.2,0,0,1,.07-3.39,2.89,2.89,0,0,0-.07-1,2.47,2.47,0,0,1-.15-.94c0-.25-.08-.37-.33-.38a7.74,7.74,0,0,1-1.89-.49c-.39-.11-.5-.27-.39-.66a17.71,17.71,0,0,1,.91-3.2c.13-.26.44-.58-.08-.81-.12-.06-.08-.86,0-1a.22.22,0,0,1,.21-.07,1.15,1.15,0,0,0,.76-.22.91.91,0,0,1,1.23.17c.08.09.25.08.35.19a.15.15,0,0,0,.25,0,.23.23,0,0,0,0-.32,1.45,1.45,0,0,0-.29-.19,2.16,2.16,0,0,1-.38-.27c-.12-.15-.25-.34-.12-.55s.27,0,.41,0a.58.58,0,0,1,.22.08,1.41,1.41,0,0,0,1.31,0c1.13-.52,1.81-.2,2.36,1,.46,1,.32,1.19-.33,1.92a3.12,3.12,0,0,0-.59.81.51.51,0,0,0,.18.74,4.9,4.9,0,0,1,1.28-2.13,1.9,1.9,0,0,1,1.44-.66,5.44,5.44,0,0,1,2.33.34,2.7,2.7,0,0,1,1.8,2.49,3.86,3.86,0,0,1-.53,2.23c-.2.32-.44.61-.91.52a1.87,1.87,0,0,0,.4.69,3,3,0,0,1,.46,2,12.12,12.12,0,0,1-.46,2.34,3.45,3.45,0,0,0-.08,1c0,.16,0,.32,0,.48a1.84,1.84,0,0,1-1.6,2,7.12,7.12,0,0,1-1.38.09c-.44,0-.51.12-.28.53a2.2,2.2,0,0,1,.3.64.33.33,0,0,1-.49-.11,2,2,0,0,1-.46-1,.62.62,0,0,0-.57-.58,4.62,4.62,0,0,1-.92-.29,9.17,9.17,0,0,0-.12,2.61,10.92,10.92,0,0,1,.2,1.72c0,.1,0,.21,0,.3a1.68,1.68,0,0,0,.26,1.52,4.28,4.28,0,0,1,.49,2.78,29.64,29.64,0,0,0-.17,3.88c0,.45.24.88.22,1.35,0,.19.18.17.31.17h1.68a1.92,1.92,0,0,1,1.46.62A1.1,1.1,0,0,1,185,78.1a1,1,0,0,1-1,.69c-2.84,0-5.67,0-8.51,0h-3.76a2.15,2.15,0,0,0-1.46.45,1.07,1.07,0,0,0,0,1.81,2.35,2.35,0,0,0,1.48.42c2.64,0,5.28,0,7.92,0a1.65,1.65,0,0,1,1.11.42,1.21,1.21,0,0,1,.36,1.3,1.16,1.16,0,0,1-1.07.77H167.84a1.86,1.86,0,0,0-1.38.49,1,1,0,0,0,0,1.65,2.2,2.2,0,0,0,1.51.51h4.46a1.71,1.71,0,0,1,1,.29,1.25,1.25,0,0,1,0,2.06,2.57,2.57,0,0,1-1.38.34c-5.06,0-10.11-.07-15.16,0-5.4.09-10.8,0-16.2.06a2,2,0,0,0-1.39.48,1.06,1.06,0,0,0,0,1.7,2.16,2.16,0,0,0,1.4.47c2.45,0,4.9,0,7.35,0,4.36.06,8.72,0,13.08,0a1.88,1.88,0,0,1,1.46.58,1.13,1.13,0,0,1,0,1.6,1.83,1.83,0,0,1-1.24.58,2.67,2.67,0,0,1-.4,0q-16.32,0-32.64,0a2.38,2.38,0,0,1-1.38-.36,1.19,1.19,0,0,1,0-2,2.08,2.08,0,0,1,1.3-.41l6,0a1.92,1.92,0,0,0,1.38-.5,1.06,1.06,0,0,0-.18-1.79,2.16,2.16,0,0,0-1.26-.36c-1.85,0-3.71.06-5.56,0-2.68-.08-5.35-.06-8-.07a2,2,0,0,1-.94-.24,1.28,1.28,0,0,1-.79-1.28,1.51,1.51,0,0,1,1.19-1.15,4.51,4.51,0,0,1,.52,0h6.6a2.12,2.12,0,0,0,1.65-.58,1.06,1.06,0,0,0-.08-1.62,2,2,0,0,0-1.29-.44h-7.35a1.19,1.19,0,0,1-.87-2,1.55,1.55,0,0,1,1.09-.46c1,0,2,0,3,0A2.19,2.19,0,0,0,124.7,81a1.08,1.08,0,0,0,0-1.84,2.44,2.44,0,0,0-1.48-.42H105a1,1,0,0,1-1-.77,1.1,1.1,0,0,1,.28-1.2,1.91,1.91,0,0,1,1.08-.53,4.43,4.43,0,0,1,.63,0h10.77a2,2,0,0,0,1.14-.32q8.51-5.46,17-10.88a1,1,0,0,0,.49-.69q1.51-5.58,3-11.17a11.39,11.39,0,0,1,.7-1.64c1.2-2.62,2.42-5.23,3.63-7.84.91-2,1.8-3.94,2.7-5.91C145.5,37.77,145.54,37.73,145.67,37.71Zm29.87,13.46c0,.19,0,.31,0,.42.06.57.06.56.6.48s.88-.37,1.36-.41.49-.17.4-.67a.45.45,0,0,0-.37-.4c-.45-.11-.44-.12-.4-.64a2.32,2.32,0,0,0,0-.59.36.36,0,0,0-.51-.32c-.32.12-.67.24-.8.61A5.27,5.27,0,0,0,175.54,51.17Z"/><path class="cls-2" d="M146.53,100.41h-6.94a2.71,2.71,0,0,1-1.28-.3,1.2,1.2,0,0,1-.74-1.11,1.22,1.22,0,0,1,.76-1.17,2.85,2.85,0,0,1,1.29-.27h13.77a2.89,2.89,0,0,1,1.29.25,1.28,1.28,0,0,1,.83,1.12,1.25,1.25,0,0,1-.76,1.18,2.46,2.46,0,0,1-1.28.29Z"/><path class="cls-2" d="M111.87,84.19h-2.49a2.94,2.94,0,0,1-1-.16,1.4,1.4,0,0,1-1.06-1.28,1.46,1.46,0,0,1,1.13-1.28,3.51,3.51,0,0,1,.91-.13h5a3.29,3.29,0,0,1,1.07.18,1.43,1.43,0,0,1,.75.53,1.19,1.19,0,0,1-.21,1.65,2.35,2.35,0,0,1-1.51.48C113.6,84.2,112.73,84.19,111.87,84.19Z"/><path class="cls-1" d="M109.22,59s0,.07,0,.09,0,0-.08,0l.08-.06Z"/><path class="cls-2" d="M3,137.65V108.38H8.72l12,19.55V108.38h5.49v29.27H20.26L8.46,118.56v19.09Z"/><path class="cls-2" d="M36.59,122.91,31.5,122a8,8,0,0,1,3-4.55c1.39-1,3.47-1.48,6.22-1.48a13.5,13.5,0,0,1,5.6.89,5.65,5.65,0,0,1,2.58,2.26,11.56,11.56,0,0,1,.75,5l-.06,6.55a22.65,22.65,0,0,0,.27,4.12,12.1,12.1,0,0,0,1,2.85H45.28c-.15-.37-.33-.93-.54-1.66-.1-.33-.16-.55-.2-.66a10.11,10.11,0,0,1-3.08,2.1,8.7,8.7,0,0,1-3.49.7,7.21,7.21,0,0,1-5.16-1.78,5.89,5.89,0,0,1-1.89-4.49,6.07,6.07,0,0,1,.86-3.21,5.6,5.6,0,0,1,2.41-2.15,18.48,18.48,0,0,1,4.46-1.31,30,30,0,0,0,5.45-1.38v-.56a2.9,2.9,0,0,0-.8-2.3,4.77,4.77,0,0,0-3-.69,4,4,0,0,0-2.34.59A4.1,4.1,0,0,0,36.59,122.91Zm7.51,4.56a34.8,34.8,0,0,1-3.42.85,10.52,10.52,0,0,0-3,1,2.35,2.35,0,0,0-1.1,2,2.75,2.75,0,0,0,.88,2,3.09,3.09,0,0,0,2.24.86,4.89,4.89,0,0,0,2.89-1,3.53,3.53,0,0,0,1.34-1.86,10.91,10.91,0,0,0,.22-2.74Z"/><path class="cls-2" d="M54.72,116.44h5.17v2.9A8.34,8.34,0,0,1,66.5,116a7.13,7.13,0,0,1,3.54.84,6.46,6.46,0,0,1,2.45,2.54,9.82,9.82,0,0,1,3-2.54A7.39,7.39,0,0,1,79,116a7.74,7.74,0,0,1,4,1,5.8,5.8,0,0,1,2.41,2.79,12,12,0,0,1,.58,4.39v13.56H80.3V125.53c0-2.1-.19-3.46-.58-4.07a2.66,2.66,0,0,0-2.39-1.2,3.82,3.82,0,0,0-2.22.72,4,4,0,0,0-1.5,2.1,15.08,15.08,0,0,0-.46,4.39v10.18H67.54V126a16.18,16.18,0,0,0-.3-4,2.55,2.55,0,0,0-.93-1.33,2.86,2.86,0,0,0-1.7-.44,4.06,4.06,0,0,0-2.34.7,3.84,3.84,0,0,0-1.49,2,15,15,0,0,0-.45,4.38v10.3H54.72Z"/><path class="cls-2" d="M95.7,122.91,90.6,122a8,8,0,0,1,3-4.55A10.85,10.85,0,0,1,99.79,116a13.45,13.45,0,0,1,5.59.89,5.67,5.67,0,0,1,2.59,2.26,11.75,11.75,0,0,1,.74,5l0,6.55a23.84,23.84,0,0,0,.26,4.12,12.1,12.1,0,0,0,1,2.85h-5.55c-.14-.37-.32-.93-.54-1.66-.09-.33-.16-.55-.2-.66a10.07,10.07,0,0,1-3.07,2.1,8.75,8.75,0,0,1-3.5.7,7.21,7.21,0,0,1-5.16-1.78A5.88,5.88,0,0,1,90,131.86a6.06,6.06,0,0,1,.85-3.21,5.72,5.72,0,0,1,2.41-2.15,18.63,18.63,0,0,1,4.46-1.31,29.72,29.72,0,0,0,5.45-1.38v-.56a2.9,2.9,0,0,0-.79-2.3,4.81,4.81,0,0,0-3-.69,4,4,0,0,0-2.34.59A4,4,0,0,0,95.7,122.91Zm7.5,4.56a33.7,33.7,0,0,1-3.41.85,10.51,10.51,0,0,0-3.06,1,2.34,2.34,0,0,0-1.09,2,2.78,2.78,0,0,0,.87,2,3.1,3.1,0,0,0,2.24.86,4.92,4.92,0,0,0,2.9-1,3.51,3.51,0,0,0,1.33-1.86,10.91,10.91,0,0,0,.22-2.74Z"/><path class="cls-2" d="M112.27,131.6l5.63-.86a4.17,4.17,0,0,0,1.46,2.49,4.94,4.94,0,0,0,3.07.85,5.61,5.61,0,0,0,3.28-.8,1.8,1.8,0,0,0,.74-1.5,1.5,1.5,0,0,0-.4-1.06,4.5,4.5,0,0,0-1.88-.74q-6.8-1.5-8.61-2.73a5.49,5.49,0,0,1-2.51-4.78,5.88,5.88,0,0,1,2.17-4.63Q117.4,116,122,116c2.91,0,5.06.48,6.47,1.42a7.28,7.28,0,0,1,2.92,4.2l-5.29,1a3.3,3.3,0,0,0-1.29-1.89,4.72,4.72,0,0,0-2.71-.66,6,6,0,0,0-3.17.62,1.32,1.32,0,0,0-.64,1.14,1.25,1.25,0,0,0,.56,1c.5.38,2.25.9,5.24,1.58s5.07,1.51,6.26,2.5a5.19,5.19,0,0,1,1.76,4.17,6.43,6.43,0,0,1-2.44,5c-1.62,1.4-4,2.1-7.21,2.1a11.85,11.85,0,0,1-6.86-1.76A8.1,8.1,0,0,1,112.27,131.6Z"/><path class="cls-2" d="M146.71,116.44v4.48h-3.83v8.54a21.94,21.94,0,0,0,.11,3,1.25,1.25,0,0,0,.5.71,1.64,1.64,0,0,0,.95.28,7.18,7.18,0,0,0,2.25-.54l.48,4.35a11.11,11.11,0,0,1-4.43.84,7.08,7.08,0,0,1-2.74-.51,4,4,0,0,1-1.78-1.32,5.26,5.26,0,0,1-.79-2.18,27.27,27.27,0,0,1-.18-4v-9.24h-2.58v-4.48h2.58v-4.21l5.63-3.27v7.48Z"/><path class="cls-2" d="M162.89,130.9l5.59.94a9.18,9.18,0,0,1-3.41,4.68,10,10,0,0,1-5.82,1.61q-5.52,0-8.18-3.62a12.11,12.11,0,0,1-2.1-7.3q0-5.28,2.76-8.26a9,9,0,0,1,7-3,9.42,9.42,0,0,1,7.47,3.13q2.75,3.12,2.62,9.57H154.72a5.67,5.67,0,0,0,1.36,3.89,4.25,4.25,0,0,0,3.23,1.39,3.44,3.44,0,0,0,2.22-.72A4.45,4.45,0,0,0,162.89,130.9Zm.32-5.67a5.38,5.38,0,0,0-1.26-3.7,4,4,0,0,0-5.95.07,5.17,5.17,0,0,0-1.18,3.63Z"/><path class="cls-2" d="M184.81,137.65V108.38h5.75l12,19.55V108.38H208v29.27H202.1l-11.8-19.09v19.09Z"/><path class="cls-2" d="M226.53,130.9l5.59.94a9.18,9.18,0,0,1-3.41,4.68,10,10,0,0,1-5.82,1.61q-5.53,0-8.19-3.62a12.17,12.17,0,0,1-2.09-7.3q0-5.28,2.75-8.26a9.08,9.08,0,0,1,7-3,9.42,9.42,0,0,1,7.47,3.13q2.73,3.12,2.62,9.57H218.36a5.67,5.67,0,0,0,1.36,3.89,4.25,4.25,0,0,0,3.23,1.39,3.44,3.44,0,0,0,2.22-.72A4.45,4.45,0,0,0,226.53,130.9Zm.31-5.67a5.38,5.38,0,0,0-1.25-3.7,4,4,0,0,0-6,.07,5.13,5.13,0,0,0-1.18,3.63Z"/><path class="cls-2" d="M236.83,116.44h5.23v3.12a7.84,7.84,0,0,1,2.76-2.6,7.62,7.62,0,0,1,3.85-1,8.1,8.1,0,0,1,6.27,2.9c1.72,1.93,2.57,4.62,2.57,8.07s-.86,6.29-2.59,8.25a8.07,8.07,0,0,1-6.29,2.95,7.14,7.14,0,0,1-3.19-.7,10.67,10.67,0,0,1-3-2.4v10.69h-5.61Zm5.55,10.25q0,3.57,1.42,5.28a4.32,4.32,0,0,0,3.45,1.71,4.08,4.08,0,0,0,3.26-1.57q1.29-1.58,1.29-5.14a7.69,7.69,0,0,0-1.33-5,4.17,4.17,0,0,0-3.32-1.61,4.29,4.29,0,0,0-3.41,1.59A7,7,0,0,0,242.38,126.69Z"/><path class="cls-2" d="M266.16,122.91l-5.09-.92a8,8,0,0,1,3-4.55c1.39-1,3.47-1.48,6.22-1.48a13.5,13.5,0,0,1,5.6.89,5.65,5.65,0,0,1,2.58,2.26,11.56,11.56,0,0,1,.75,5l-.06,6.55a22.65,22.65,0,0,0,.27,4.12,12.1,12.1,0,0,0,1,2.85h-5.55c-.15-.37-.33-.93-.54-1.66-.1-.33-.16-.55-.2-.66a10,10,0,0,1-3.08,2.1,8.7,8.7,0,0,1-3.49.7,7.21,7.21,0,0,1-5.16-1.78,5.89,5.89,0,0,1-1.89-4.49,6.07,6.07,0,0,1,.86-3.21,5.6,5.6,0,0,1,2.41-2.15,18.48,18.48,0,0,1,4.46-1.31,30,30,0,0,0,5.45-1.38v-.56a2.9,2.9,0,0,0-.8-2.3,4.77,4.77,0,0,0-3-.69,4,4,0,0,0-2.34.59A4.1,4.1,0,0,0,266.16,122.91Zm7.51,4.56a34.8,34.8,0,0,1-3.42.85,10.52,10.52,0,0,0-3.05,1,2.35,2.35,0,0,0-1.1,2,2.75,2.75,0,0,0,.88,2,3.09,3.09,0,0,0,2.24.86,4.89,4.89,0,0,0,2.89-1,3.53,3.53,0,0,0,1.34-1.86,10.91,10.91,0,0,0,.22-2.74Z"/><path class="cls-2" d="M284.71,137.65V108.38h5.61v29.27Z"/><path class="cls-1" d="M3.83,162.25V151.54H0v-2.18H10.25v2.18H6.43v10.71Z"/><path class="cls-1" d="M13.28,162.25H10.81v-9.34H13.1v1.33A4.11,4.11,0,0,1,14.16,153a2,2,0,0,1,1.07-.3,3.15,3.15,0,0,1,1.63.46l-.77,2.16a2.15,2.15,0,0,0-1.16-.41,1.39,1.39,0,0,0-.88.29,1.88,1.88,0,0,0-.56,1,14.51,14.51,0,0,0-.21,3.13Z"/><path class="cls-1" d="M23.33,159.28l2.46.41a4,4,0,0,1-1.5,2.06,4.39,4.39,0,0,1-2.56.71,4.17,4.17,0,0,1-3.6-1.59,5.34,5.34,0,0,1-.93-3.22A5.17,5.17,0,0,1,18.42,154a4,4,0,0,1,3.07-1.31,4.14,4.14,0,0,1,3.28,1.37,6.1,6.1,0,0,1,1.16,4.22H19.74a2.47,2.47,0,0,0,.59,1.71,1.87,1.87,0,0,0,1.43.61,1.5,1.5,0,0,0,1-.31A2,2,0,0,0,23.33,159.28Zm.14-2.5a2.33,2.33,0,0,0-.55-1.63,1.78,1.78,0,0,0-2.62,0,2.25,2.25,0,0,0-.52,1.6Z"/><path class="cls-1" d="M27.85,162.25V149.36h2.47v6.84l2.9-3.29h3l-3.19,3.41,3.42,5.93H33.82l-2.34-4.2-1.16,1.21v3Z"/><path class="cls-1" d="M37.87,162.25V149.36h2.47v6.84l2.89-3.29h3.05l-3.2,3.41,3.42,5.93H43.84l-2.35-4.2-1.15,1.21v3Z"/><path class="cls-1" d="M48,151.64v-2.28h2.48v2.28Zm0,10.61v-9.34h2.48v9.34Z"/><path class="cls-1" d="M61.47,162.25H59v-4.77a7.05,7.05,0,0,0-.16-1.95,1.35,1.35,0,0,0-.51-.7,1.5,1.5,0,0,0-.86-.24,2,2,0,0,0-1.15.35,1.8,1.8,0,0,0-.7.93,8.34,8.34,0,0,0-.19,2.15v4.23H53v-9.34h2.3v1.37a3.74,3.74,0,0,1,3.07-1.58,3.82,3.82,0,0,1,1.5.29,2.56,2.56,0,0,1,1,.75,2.77,2.77,0,0,1,.49,1,7.86,7.86,0,0,1,.13,1.66Z"/><path class="cls-1" d="M63.75,162.86l2.82.35a1,1,0,0,0,.33.67,1.81,1.81,0,0,0,1.11.27,2.92,2.92,0,0,0,1.45-.29,1.18,1.18,0,0,0,.49-.63,3.53,3.53,0,0,0,.12-1.13v-1.36a3.36,3.36,0,0,1-2.8,1.51,3.43,3.43,0,0,1-3-1.59,5.39,5.39,0,0,1-.86-3.13,5.1,5.1,0,0,1,1.13-3.59,3.63,3.63,0,0,1,2.81-1.24,3.4,3.4,0,0,1,2.85,1.52v-1.31h2.32v8.38a8,8,0,0,1-.28,2.47,3.07,3.07,0,0,1-.76,1.29,3.33,3.33,0,0,1-1.32.72,6.73,6.73,0,0,1-2.08.27,5.37,5.37,0,0,1-3.36-.81,2.55,2.55,0,0,1-1-2.07C63.74,163.08,63.75,163,63.75,162.86ZM66,157.39a3.31,3.31,0,0,0,.58,2.17,1.77,1.77,0,0,0,1.42.69,2,2,0,0,0,1.53-.71,3.1,3.1,0,0,0,.62-2.09,3.28,3.28,0,0,0-.6-2.16,1.89,1.89,0,0,0-1.51-.7,1.81,1.81,0,0,0-1.46.69A3.2,3.2,0,0,0,66,157.39Z"/><path class="cls-1" d="M91.41,160.67l-1.49,1.91a9,9,0,0,1-2.12-1.47,5.32,5.32,0,0,1-1.66,1,5.69,5.69,0,0,1-2.09.34,4.58,4.58,0,0,1-3.62-1.36,3.47,3.47,0,0,1-.94-2.41,3.66,3.66,0,0,1,.73-2.23,6.14,6.14,0,0,1,2.21-1.72,6.62,6.62,0,0,1-1-1.49,3.05,3.05,0,0,1-.34-1.34,2.54,2.54,0,0,1,.94-2,4,4,0,0,1,2.67-.81,3.75,3.75,0,0,1,2.61.85,2.69,2.69,0,0,1,.94,2.08,2.64,2.64,0,0,1-.46,1.49,6.36,6.36,0,0,1-1.89,1.59l1.8,2.37a6.16,6.16,0,0,0,.54-1.47l2.24.51a16.4,16.4,0,0,1-.58,1.74,4.75,4.75,0,0,1-.53.91,8.32,8.32,0,0,0,1.07.85A7.69,7.69,0,0,0,91.41,160.67Zm-7.7-4.32a3.27,3.27,0,0,0-1.27,1,2.12,2.12,0,0,0-.42,1.23,1.73,1.73,0,0,0,.52,1.31,1.93,1.93,0,0,0,1.4.51,2.88,2.88,0,0,0,1.12-.23,4.8,4.8,0,0,0,1.17-.76Zm1-2.69.67-.5a1.56,1.56,0,0,0,.74-1.14,1.06,1.06,0,0,0-.36-.81,1.35,1.35,0,0,0-1-.33,1.37,1.37,0,0,0-.92.29.88.88,0,0,0-.34.68,1.84,1.84,0,0,0,.57,1.11Z"/><path class="cls-1" d="M98,162.25V149.36h5.48a9.53,9.53,0,0,1,3,.34,3,3,0,0,1,1.49,1.24,3.67,3.67,0,0,1,.57,2,3.44,3.44,0,0,1-.86,2.4,4.08,4.08,0,0,1-2.55,1.19,6.16,6.16,0,0,1,1.4,1.08,15,15,0,0,1,1.48,2.09l1.57,2.52H106.5l-1.88-2.81a19.52,19.52,0,0,0-1.37-1.89,2.07,2.07,0,0,0-.79-.54,4.19,4.19,0,0,0-1.31-.14h-.52v5.38Zm2.61-7.44h1.92a9.65,9.65,0,0,0,2.34-.16,1.4,1.4,0,0,0,.73-.55,1.62,1.62,0,0,0,.27-1,1.53,1.53,0,0,0-.35-1,1.58,1.58,0,0,0-1-.51c-.21,0-.85,0-1.9,0h-2Z"/><path class="cls-1" d="M116.41,159.28l2.47.41a4.07,4.07,0,0,1-1.5,2.06,4.45,4.45,0,0,1-2.57.71,4.17,4.17,0,0,1-3.6-1.59,5.34,5.34,0,0,1-.93-3.22A5.17,5.17,0,0,1,111.5,154a4,4,0,0,1,3.07-1.31,4.18,4.18,0,0,1,3.29,1.37,6.15,6.15,0,0,1,1.15,4.22h-6.19a2.47,2.47,0,0,0,.59,1.71,1.88,1.88,0,0,0,1.43.61,1.53,1.53,0,0,0,1-.31A2,2,0,0,0,116.41,159.28Zm.14-2.5a2.33,2.33,0,0,0-.55-1.63,1.67,1.67,0,0,0-1.28-.56,1.7,1.7,0,0,0-1.34.59,2.25,2.25,0,0,0-.52,1.6Z"/><path class="cls-1" d="M120.15,159.58l2.48-.37a1.84,1.84,0,0,0,.64,1.09,2.18,2.18,0,0,0,1.36.37,2.39,2.39,0,0,0,1.44-.35.76.76,0,0,0,.32-.66.63.63,0,0,0-.17-.46,1.91,1.91,0,0,0-.83-.33,13.5,13.5,0,0,1-3.79-1.2,2.42,2.42,0,0,1-1.11-2.11,2.61,2.61,0,0,1,1-2,4.48,4.48,0,0,1,3-.82,5.24,5.24,0,0,1,2.85.62,3.19,3.19,0,0,1,1.29,1.85l-2.33.43a1.48,1.48,0,0,0-.57-.84,2.11,2.11,0,0,0-1.19-.29,2.6,2.6,0,0,0-1.4.28.57.57,0,0,0-.28.5.55.55,0,0,0,.25.45,9.54,9.54,0,0,0,2.3.69,6.92,6.92,0,0,1,2.76,1.1,2.27,2.27,0,0,1,.78,1.84,2.83,2.83,0,0,1-1.08,2.21,4.76,4.76,0,0,1-3.17.92,5.23,5.23,0,0,1-3-.77A3.56,3.56,0,0,1,120.15,159.58Z"/><path class="cls-1" d="M136.45,159.28l2.46.41a4.07,4.07,0,0,1-1.5,2.06,4.41,4.41,0,0,1-2.56.71,4.18,4.18,0,0,1-3.61-1.59,5.4,5.4,0,0,1-.92-3.22,5.16,5.16,0,0,1,1.21-3.64,4,4,0,0,1,3.07-1.31,4.16,4.16,0,0,1,3.29,1.37,6.1,6.1,0,0,1,1.15,4.22h-6.19a2.53,2.53,0,0,0,.6,1.71,1.85,1.85,0,0,0,1.42.61,1.53,1.53,0,0,0,1-.31A2.1,2.1,0,0,0,136.45,159.28Zm.14-2.5a2.38,2.38,0,0,0-.56-1.63,1.67,1.67,0,0,0-1.28-.56,1.7,1.7,0,0,0-1.34.59,2.3,2.3,0,0,0-.52,1.6Z"/><path class="cls-1" d="M142.9,155.76l-2.24-.41a3.49,3.49,0,0,1,1.3-2,4.73,4.73,0,0,1,2.75-.65,5.93,5.93,0,0,1,2.46.39,2.45,2.45,0,0,1,1.14,1,5.09,5.09,0,0,1,.33,2.21l0,2.89a9.77,9.77,0,0,0,.12,1.81,5.59,5.59,0,0,0,.44,1.26h-2.44a6.92,6.92,0,0,1-.24-.73,2.74,2.74,0,0,0-.09-.29,4.33,4.33,0,0,1-1.35.92,3.82,3.82,0,0,1-1.54.31,3.18,3.18,0,0,1-2.27-.78,2.58,2.58,0,0,1-.84-2,2.66,2.66,0,0,1,.38-1.41,2.5,2.5,0,0,1,1.06-.95,8.13,8.13,0,0,1,2-.58,13.67,13.67,0,0,0,2.4-.61v-.24a1.29,1.29,0,0,0-.35-1,2.15,2.15,0,0,0-1.33-.3,1.8,1.8,0,0,0-1,.26A1.73,1.73,0,0,0,142.9,155.76Zm3.31,2c-.32.11-.82.23-1.5.38a4.65,4.65,0,0,0-1.35.43,1,1,0,0,0-.48.87,1.19,1.19,0,0,0,.38.9,1.37,1.37,0,0,0,1,.38,2.15,2.15,0,0,0,1.27-.44,1.53,1.53,0,0,0,.59-.82,4.53,4.53,0,0,0,.1-1.2Z"/><path class="cls-1" d="M153.44,162.25H151v-9.34h2.29v1.33a4,4,0,0,1,1.06-1.24,1.94,1.94,0,0,1,1.07-.3,3.15,3.15,0,0,1,1.63.46l-.77,2.16a2.15,2.15,0,0,0-1.16-.41,1.39,1.39,0,0,0-.88.29,2,2,0,0,0-.57,1,15.47,15.47,0,0,0-.2,3.13Z"/><path class="cls-1" d="M166.22,155.67l-2.43.44a1.76,1.76,0,0,0-.56-1.1,1.67,1.67,0,0,0-1.13-.37,1.81,1.81,0,0,0-1.47.64,3.22,3.22,0,0,0-.55,2.13,3.74,3.74,0,0,0,.56,2.35,1.82,1.82,0,0,0,1.49.69,1.72,1.72,0,0,0,1.16-.4,2.41,2.41,0,0,0,.63-1.38l2.43.41a4.32,4.32,0,0,1-1.45,2.53,4.51,4.51,0,0,1-2.88.85,4.29,4.29,0,0,1-3.27-1.29,5.91,5.91,0,0,1,0-7.18,4.32,4.32,0,0,1,3.3-1.29,4.52,4.52,0,0,1,2.72.73A4.07,4.07,0,0,1,166.22,155.67Z"/><path class="cls-1" d="M170.56,149.36v4.74A3.73,3.73,0,0,1,175,153a2.54,2.54,0,0,1,1,.81,3.05,3.05,0,0,1,.48,1.09,10.4,10.4,0,0,1,.12,1.86v5.48h-2.47v-4.94a7,7,0,0,0-.14-1.86,1.27,1.27,0,0,0-.49-.63,1.67,1.67,0,0,0-.9-.23,2.06,2.06,0,0,0-1.1.3,1.68,1.68,0,0,0-.7.9,5.31,5.31,0,0,0-.23,1.78v4.68h-2.47V149.36Z"/><path class="cls-1" d="M184.13,162.25V149.36h2.6v5.07h5.1v-5.07h2.61v12.89h-2.61v-5.64h-5.1v5.64Z"/><path class="cls-1" d="M203.26,162.25v-1.4a3.64,3.64,0,0,1-1.34,1.18,3.75,3.75,0,0,1-1.76.43,3.52,3.52,0,0,1-1.69-.41,2.57,2.57,0,0,1-1.08-1.16,5.26,5.26,0,0,1-.33-2.07v-5.91h2.47v4.29a11.78,11.78,0,0,0,.14,2.41,1.29,1.29,0,0,0,.49.71,1.56,1.56,0,0,0,.92.26,1.94,1.94,0,0,0,1.13-.35,1.78,1.78,0,0,0,.69-.86,10.22,10.22,0,0,0,.18-2.52v-3.94h2.47v9.34Z"/><path class="cls-1" d="M208,162.25V149.36h2.47V154a3.48,3.48,0,0,1,2.71-1.3,3.63,3.63,0,0,1,2.82,1.23,5.16,5.16,0,0,1,1.12,3.55,5.4,5.4,0,0,1-1.14,3.69,3.56,3.56,0,0,1-2.77,1.29,3.4,3.4,0,0,1-1.58-.4,3.93,3.93,0,0,1-1.34-1.18v1.37Zm2.45-4.87a3.91,3.91,0,0,0,.46,2.14,2,2,0,0,0,1.71,1,1.78,1.78,0,0,0,1.39-.7,3.48,3.48,0,0,0,.57-2.21,3.61,3.61,0,0,0-.58-2.3,1.8,1.8,0,0,0-1.48-.71,1.87,1.87,0,0,0-1.48.69A3.19,3.19,0,0,0,210.46,157.38Z"/><path class="cls-1" d="M224.14,162.25V149.36h4.17a15.16,15.16,0,0,1,3.1.19,3.36,3.36,0,0,1,1.86,1.26,4.07,4.07,0,0,1,.74,2.51,4.2,4.2,0,0,1-.43,2,3.59,3.59,0,0,1-1.09,1.27,3.85,3.85,0,0,1-1.35.61,15,15,0,0,1-2.7.19h-1.7v4.86Zm2.6-10.71v3.66h1.42a6.47,6.47,0,0,0,2.06-.21,1.67,1.67,0,0,0,.82-.63,1.78,1.78,0,0,0,.29-1,1.68,1.68,0,0,0-.41-1.16,1.83,1.83,0,0,0-1-.58,14.25,14.25,0,0,0-1.87-.08Z"/><path class="cls-1" d="M238.7,162.25l-3.76-9.34h2.59l1.76,4.77.51,1.59c.13-.41.22-.67.25-.8s.17-.53.27-.79l1.78-4.77h2.54l-3.71,9.34Z"/><path class="cls-1" d="M250.43,152.91v2h-1.69v3.76a9.53,9.53,0,0,0,0,1.33.55.55,0,0,0,.22.32.74.74,0,0,0,.42.12,3.12,3.12,0,0,0,1-.24l.21,1.92a4.81,4.81,0,0,1-1.95.37,3.25,3.25,0,0,1-1.2-.22,1.77,1.77,0,0,1-.79-.59,2.24,2.24,0,0,1-.35-1,12.41,12.41,0,0,1-.08-1.74v-4.07h-1.13v-2h1.13v-1.86l2.48-1.44v3.3Z"/><path class="cls-1" d="M252.15,162.25v-2.47h2.47v2.47Z"/><path class="cls-1" d="M262.24,162.25V149.46h2.61v10.62h6.47v2.17Z"/><path class="cls-1" d="M277.44,152.91v2h-1.69v3.76a9.53,9.53,0,0,0,.05,1.33.55.55,0,0,0,.22.32.7.7,0,0,0,.42.12,3.12,3.12,0,0,0,1-.24l.21,1.92a4.81,4.81,0,0,1-1.95.37,3.21,3.21,0,0,1-1.2-.22,1.77,1.77,0,0,1-.79-.59,2.24,2.24,0,0,1-.35-1,12.41,12.41,0,0,1-.08-1.74v-4.07h-1.13v-2h1.13v-1.86l2.48-1.44v3.3Z"/><path class="cls-1" d="M287.72,162.25h-2.29v-1.37a3.88,3.88,0,0,1-1.35,1.19,3.5,3.5,0,0,1-4.33-.91,6.32,6.32,0,0,1,0-7.23,3.63,3.63,0,0,1,2.82-1.23,3.49,3.49,0,0,1,2.71,1.3v-4.64h2.47Zm-6.59-4.87a4.25,4.25,0,0,0,.41,2.16,1.87,1.87,0,0,0,1.67,1,1.83,1.83,0,0,0,1.45-.73,3.32,3.32,0,0,0,.6-2.17,3.62,3.62,0,0,0-.58-2.31,1.82,1.82,0,0,0-1.49-.71,1.84,1.84,0,0,0-1.47.7A3.12,3.12,0,0,0,281.13,157.38Z"/><path class="cls-1" d="M290.16,162.25v-2.47h2.47v2.47Z"/></g></g></svg>