<svg xmlns="http://www.w3.org/2000/svg" viewBox="0 0 382.62 75.45"><defs><style>.cls-1{fill:#f78201;}.cls-2{fill:#2271a5;}</style></defs><title>logoh</title><g id="Layer_2" data-name="Layer 2"><g id="Layer_1-2" data-name="Layer 1"><path class="cls-1" d="M38,0c.23.14.48.06.72.07A33.52,33.52,0,0,1,46.3,1.46,35.43,35.43,0,0,1,59.23,8.59a35.76,35.76,0,0,1,3.36,3.27,37.58,37.58,0,0,1,4.79,6.65,38.26,38.26,0,0,1,3.08,7,36.73,36.73,0,0,1,1.4,5.88c.17,1.12.3,2.25.38,3.39s.06,2.16.08,3.24a.28.28,0,0,1-.08.18l-.42-1L68.3,28.81a1,1,0,0,0-.45-.51l-6.72-3.75c-.59-.33-1.18-.65-1.76-1a.34.34,0,0,0-.49.06c-.54.57-1.11,1.1-1.66,1.65-.72.72-1.43,1.46-2.14,2.18-.33.34-.67.66-1,1a.88.88,0,0,1-.34.19c-1.25.47-2.49,1-3.75,1.41a9.87,9.87,0,0,0-1.72.94c-.82.48-1.61,1-2.46,1.43a.76.76,0,0,0-.37.52,21.31,21.31,0,0,0-.61,2.25,5.28,5.28,0,0,1-.24.77c0-.4,0-.79.08-1.19.08-.92.18-1.85.24-2.77a.63.63,0,0,1,.33-.57c.48-.29.93-.61,1.41-.89s.62-.85.88-1.3c0-.07,0-.14-.06-.2a10.57,10.57,0,0,1-2.55-4.53c-.32-.94-.59-1.89-.85-2.84a9.48,9.48,0,0,0-2-3.65c-.75-.87-1.57-1.65-2.35-2.48a10.36,10.36,0,0,1-1.45-2,21.66,21.66,0,0,0-1.89-2.85l0,0c-.31-.38-.31-.38-.64,0l-4.1,4.24a1.75,1.75,0,0,0-.39.64c-.26.74-.52,1.49-.81,2.22a.6.6,0,0,0,.08.66,7.12,7.12,0,0,0,1,1.15,2.67,2.67,0,0,1,.81,1.81c.05.85.17,1.69.27,2.54a.33.33,0,0,1,0,.27c-.23-.57-.45-1.14-.68-1.7-.08-.19-.18-.38-.27-.57a1,1,0,0,0-.51-.51,7.7,7.7,0,0,1-1.1-.72l-.4-.29c-.16.06-.16.18-.19.27a9.73,9.73,0,0,1-1.15,2.16c-1.4,2.31-2.81,4.62-4.29,6.88q-1.2,1.84-2.52,3.61a57.55,57.55,0,0,0-3.83,6,1.25,1.25,0,0,1-.61.59c-1.87.86-3.75,1.73-5.6,2.64-.76.37-1.45.87-2.18,1.31l-.67.41c-.07,0-.14.11-.23,0h0a18,18,0,0,1,1.14-1.47l1.3-1.68a.92.92,0,0,1,.37-.31l4.33-2.07a2.91,2.91,0,0,1,.35-.18,2.41,2.41,0,0,0,1.32-1.14c1.27-2,2.57-3.93,3.85-5.89a1,1,0,0,0,.21-.39c-.07-.1-.15,0-.23,0a21.87,21.87,0,0,1-2.64.71c-.23,0-.46.08-.69.1a1,1,0,0,1-.8-.27c-1-.86-2-1.75-3.06-2.65l-2.11-1.86c-.23-.2-.24-.21-.46,0-.61.68-1.24,1.35-1.8,2.07a9.32,9.32,0,0,0-.8,1.5c-.83,1.68-1.66,3.36-2.47,5.06-.35.74-.64,1.51-1,2.25C4.25,40,3.25,41.69,2.28,43.45c-.36.66-.74,1.32-1.11,2-.07.11-.11.25-.26.33a4.89,4.89,0,0,1-.25-1.12,41.82,41.82,0,0,1-.57-4.46,40.88,40.88,0,0,1,0-5,36.92,36.92,0,0,1,1.15-7.39A38.28,38.28,0,0,1,5.56,17.48,37.2,37.2,0,0,1,18.68,4.64a35,35,0,0,1,5.95-2.72A33.45,33.45,0,0,1,31.68.27a20.23,20.23,0,0,1,2.46-.2A.3.3,0,0,0,34.38,0Z"/><path class="cls-2" d="M35.68,28.34v.46q0,10.59,0,21.17a1.19,1.19,0,0,1-.34.88c-1,1.15-2,2.32-3.07,3.49l-2.43,2.75s-.09.08-.09.18H42.84a3.09,3.09,0,0,0-.32-.41c-.67-.74-1.36-1.48-2-2.22l-3.6-4a.58.58,0,0,1-.16-.44V28.42c.15,0,.17.17.21.27.59,1.27,1.17,2.55,1.76,3.82,1.1,2.4,2.22,4.79,3.3,7.2a11.57,11.57,0,0,1,.54,1.85c.63,2.28,1.24,4.56,1.86,6.84a.73.73,0,0,0,.35.49l10.36,6.6c.81.52,1.63,1,2.43,1.57a.94.94,0,0,0,.85.18c.21-.06.43-.07.63-.11s0-.18,0-.26c0-.33.08-.51.4-.53s.4-.22.47-.5a12.92,12.92,0,0,0,.1-2.78c0-.2,0-.42,0-.63a1.46,1.46,0,0,0-.1-.66c-.38-.78-.41-1.67-.75-2.48A5.71,5.71,0,0,1,58.72,47c0-.39,0-.78,0-1.17a.93.93,0,0,1,.08-.49.59.59,0,0,0,0-.35,15.37,15.37,0,0,1,0-2.54,2.15,2.15,0,0,0,0-.76,2.12,2.12,0,0,1-.12-.71c0-.19-.06-.28-.24-.29a5.81,5.81,0,0,1-1.42-.36c-.29-.09-.38-.21-.3-.5a13.52,13.52,0,0,1,.69-2.41c.1-.19.33-.43-.06-.61-.09,0-.06-.64,0-.73a.15.15,0,0,1,.15,0,.89.89,0,0,0,.57-.17.69.69,0,0,1,.93.13c.06.07.19.06.26.14a.11.11,0,0,0,.19,0,.19.19,0,0,0,0-.25,2.11,2.11,0,0,0-.22-.14,1.1,1.1,0,0,1-.28-.2c-.09-.11-.19-.26-.1-.41s.21,0,.32,0a.56.56,0,0,1,.16.07,1.06,1.06,0,0,0,1,0c.85-.39,1.36-.15,1.78.78s.24.9-.25,1.45a2.58,2.58,0,0,0-.44.6c-.09.21-.12.4.13.56a3.72,3.72,0,0,1,1-1.6,1.51,1.51,0,0,1,1.09-.5,4.19,4.19,0,0,1,1.75.26,2,2,0,0,1,1.35,1.87,2.87,2.87,0,0,1-.4,1.68.64.64,0,0,1-.68.39,1.53,1.53,0,0,0,.29.52,2.18,2.18,0,0,1,.35,1.48,9.44,9.44,0,0,1-.34,1.76,2.42,2.42,0,0,0-.06.76c0,.12,0,.24,0,.36A1.39,1.39,0,0,1,64.68,47a5.19,5.19,0,0,1-1,.06c-.33,0-.38.09-.21.4a1.69,1.69,0,0,1,.23.49.25.25,0,0,1-.37-.09,1.57,1.57,0,0,1-.35-.72.47.47,0,0,0-.43-.43,3.64,3.64,0,0,1-.69-.22,6.81,6.81,0,0,0-.09,2,8,8,0,0,1,.15,1.29.88.88,0,0,1,0,.23,1.28,1.28,0,0,0,.19,1.14,3.25,3.25,0,0,1,.37,2.09,22,22,0,0,0-.13,2.92c0,.34.18.66.16,1,0,.15.14.13.24.13H64a1.43,1.43,0,0,1,1.09.46.81.81,0,0,1,.15.92.72.72,0,0,1-.73.52c-2.13,0-4.26,0-6.39,0H55.26a1.64,1.64,0,0,0-1.1.34.81.81,0,0,0,0,1.36,1.69,1.69,0,0,0,1.11.31h6a1.26,1.26,0,0,1,.84.31.9.9,0,0,1,.26,1,.88.88,0,0,1-.8.58H52.33a1.43,1.43,0,0,0-1,.36.8.8,0,0,0,0,1.25,1.68,1.68,0,0,0,1.13.38h3.35a1.29,1.29,0,0,1,.74.22.93.93,0,0,1,0,1.54,1.83,1.83,0,0,1-1,.26c-3.8,0-7.6,0-11.39,0-4.06.07-8.12,0-12.17,0a1.5,1.5,0,0,0-1.05.36.81.81,0,0,0,0,1.28,1.61,1.61,0,0,0,1.06.35c1.84,0,3.68,0,5.52,0,3.27.05,6.55,0,9.82,0a1.45,1.45,0,0,1,1.11.43.85.85,0,0,1,0,1.21,1.37,1.37,0,0,1-.93.43H22.67a1.74,1.74,0,0,1-1-.28.9.9,0,0,1,0-1.5,1.62,1.62,0,0,1,1-.3l4.52,0a1.47,1.47,0,0,0,1-.38A.8.8,0,0,0,28,67.4a1.68,1.68,0,0,0-.95-.26c-1.39,0-2.79,0-4.18,0-2-.06-4,0-6,0a1.44,1.44,0,0,1-.71-.18,1,1,0,0,1-.59-1,1.14,1.14,0,0,1,.89-.87h5.35A1.63,1.63,0,0,0,23,64.63.8.8,0,0,0,23,63.41a1.41,1.41,0,0,0-1-.33c-1.84,0-3.68,0-5.52,0a.87.87,0,0,1-.78-.4.88.88,0,0,1,.12-1.14,1.2,1.2,0,0,1,.83-.34h2.21a1.6,1.6,0,0,0,1.07-.32.81.81,0,0,0,0-1.38,1.87,1.87,0,0,0-1.12-.31H5.14a.77.77,0,0,1-.79-.58.85.85,0,0,1,.22-.9,1.42,1.42,0,0,1,.81-.4,3.85,3.85,0,0,1,.48,0h8.08a1.47,1.47,0,0,0,.86-.25l12.79-8.17a.8.8,0,0,0,.37-.51c.76-2.81,1.52-5.6,2.29-8.4a7.48,7.48,0,0,1,.53-1.23c.9-2,1.82-3.93,2.72-5.89l2-4.44S35.58,28.35,35.68,28.34Zm22.44,10.1c0,.15,0,.24,0,.33,0,.42,0,.41.45.35s.66-.27,1-.3.37-.14.31-.51a.34.34,0,0,0-.28-.29c-.34-.09-.33-.1-.3-.49a2.12,2.12,0,0,0,0-.44c0-.23-.19-.31-.38-.24a.81.81,0,0,0-.6.46A3.93,3.93,0,0,0,58.12,38.44Z"/><path class="cls-2" d="M36.32,75.45H31.11a2,2,0,0,1-1-.22.91.91,0,0,1-.55-.84.93.93,0,0,1,.57-.88,2.14,2.14,0,0,1,1-.2H41.47a2.13,2.13,0,0,1,1,.19.92.92,0,0,1,.06,1.73,1.91,1.91,0,0,1-1,.22Z"/><path class="cls-2" d="M10.27,63.26H8.41a2.25,2.25,0,0,1-.77-.12,1,1,0,0,1-.79-1,1.08,1.08,0,0,1,.84-1,3.19,3.19,0,0,1,.69-.1c1.26,0,2.52,0,3.77,0a2.46,2.46,0,0,1,.81.14,1,1,0,0,1,.56.4.9.9,0,0,1-.15,1.24,1.82,1.82,0,0,1-1.14.36Z"/><path class="cls-1" d="M8.29,44.32s0,0,0,.06,0,0,0,0l.06,0Z"/><path class="cls-2" d="M93,45.17V15.89h5.76l12,19.55V15.89h5.49V45.17h-5.93L98.45,26.08V45.17Z"/><path class="cls-2" d="M126.58,30.43l-5.09-.92a7.93,7.93,0,0,1,3-4.55q2.1-1.49,6.23-1.48a13.42,13.42,0,0,1,5.59.89,5.52,5.52,0,0,1,2.59,2.26,11.53,11.53,0,0,1,.75,5l-.06,6.55a22.65,22.65,0,0,0,.27,4.12,11.81,11.81,0,0,0,1,2.85h-5.55c-.15-.38-.33-.93-.54-1.66-.1-.33-.16-.55-.2-.66a10.29,10.29,0,0,1-3.08,2.1,8.88,8.88,0,0,1-3.49.7,7.22,7.22,0,0,1-5.16-1.78,5.91,5.91,0,0,1-1.89-4.49,6.07,6.07,0,0,1,.86-3.21,5.59,5.59,0,0,1,2.4-2.16,19.27,19.27,0,0,1,4.47-1.3,31.76,31.76,0,0,0,5.45-1.38v-.56a2.92,2.92,0,0,0-.8-2.31,4.79,4.79,0,0,0-3-.69,4,4,0,0,0-2.33.59A4.18,4.18,0,0,0,126.58,30.43ZM134.09,35a34.17,34.17,0,0,1-3.42.86,10.22,10.22,0,0,0-3,1,2.35,2.35,0,0,0-1.1,2,2.73,2.73,0,0,0,.88,2,3,3,0,0,0,2.24.86,4.82,4.82,0,0,0,2.89-1,3.47,3.47,0,0,0,1.34-1.85,10.91,10.91,0,0,0,.22-2.74Z"/><path class="cls-2" d="M144.71,24h5.17v2.9a8.34,8.34,0,0,1,6.61-3.38,7.13,7.13,0,0,1,3.54.84,6.46,6.46,0,0,1,2.45,2.54,9.68,9.68,0,0,1,3-2.54,7.39,7.39,0,0,1,3.45-.84,7.74,7.74,0,0,1,4,.95,5.81,5.81,0,0,1,2.41,2.79,11.93,11.93,0,0,1,.58,4.39V45.17h-5.61V33.05c0-2.11-.19-3.47-.58-4.08a2.66,2.66,0,0,0-2.4-1.2,3.81,3.81,0,0,0-2.21.72,4,4,0,0,0-1.5,2.11,15,15,0,0,0-.46,4.38V45.17h-5.61V33.55a16.13,16.13,0,0,0-.3-4,2.58,2.58,0,0,0-.93-1.34,3,3,0,0,0-1.7-.44,4.13,4.13,0,0,0-2.34.7,3.87,3.87,0,0,0-1.49,2,15,15,0,0,0-.45,4.37V45.17h-5.61Z"/><path class="cls-2" d="M185.69,30.43l-5.1-.92a7.94,7.94,0,0,1,3-4.55c1.4-1,3.47-1.48,6.23-1.48a13.48,13.48,0,0,1,5.59.89A5.49,5.49,0,0,1,198,26.63a11.53,11.53,0,0,1,.75,5l-.06,6.55a22.65,22.65,0,0,0,.27,4.12,12.26,12.26,0,0,0,1,2.85h-5.55c-.15-.38-.33-.93-.54-1.66-.09-.33-.16-.55-.2-.66a10.25,10.25,0,0,1-3.07,2.1,8.93,8.93,0,0,1-3.5.7,7.25,7.25,0,0,1-5.16-1.78A5.91,5.91,0,0,1,180,39.38a6.07,6.07,0,0,1,.86-3.21A5.62,5.62,0,0,1,183.28,34a19.16,19.16,0,0,1,4.46-1.3,31.76,31.76,0,0,0,5.45-1.38v-.56a2.89,2.89,0,0,0-.8-2.31,4.75,4.75,0,0,0-3-.69,4,4,0,0,0-2.34.59A4.11,4.11,0,0,0,185.69,30.43Zm7.5,4.55a33.81,33.81,0,0,1-3.41.86,10.2,10.2,0,0,0-3.06,1,2.35,2.35,0,0,0-1.1,2,2.77,2.77,0,0,0,.88,2,3,3,0,0,0,2.24.86,4.85,4.85,0,0,0,2.9-1A3.5,3.5,0,0,0,193,38.84a10.91,10.91,0,0,0,.22-2.74Z"/><path class="cls-2" d="M202.26,39.12l5.63-.86a4.07,4.07,0,0,0,1.46,2.48,4.87,4.87,0,0,0,3.07.85,5.53,5.53,0,0,0,3.28-.8,1.78,1.78,0,0,0,.74-1.49,1.5,1.5,0,0,0-.4-1.06,4.5,4.5,0,0,0-1.88-.74q-6.79-1.5-8.61-2.74A5.46,5.46,0,0,1,203,30a5.87,5.87,0,0,1,2.17-4.63q2.17-1.87,6.75-1.88,4.35,0,6.47,1.42a7.27,7.27,0,0,1,2.92,4.19l-5.29,1a3.33,3.33,0,0,0-1.29-1.9,4.72,4.72,0,0,0-2.71-.65,6.11,6.11,0,0,0-3.17.61,1.34,1.34,0,0,0-.64,1.14,1.23,1.23,0,0,0,.56,1q.75.55,5.24,1.58c3,.68,5.07,1.51,6.26,2.49a5.2,5.2,0,0,1,1.76,4.18,6.43,6.43,0,0,1-2.44,5c-1.62,1.4-4,2.1-7.21,2.1a11.85,11.85,0,0,1-6.86-1.76A8.1,8.1,0,0,1,202.26,39.12Z"/><path class="cls-2" d="M236.7,24v4.47h-3.83V37a21.64,21.64,0,0,0,.11,3,1.19,1.19,0,0,0,.5.71,1.55,1.55,0,0,0,1,.28,7.18,7.18,0,0,0,2.25-.54l.48,4.36a11.11,11.11,0,0,1-4.43.84,7.08,7.08,0,0,1-2.74-.51,4,4,0,0,1-1.78-1.32,5.12,5.12,0,0,1-.79-2.19,27.1,27.1,0,0,1-.18-4V28.43h-2.58V24h2.58V19.75l5.63-3.28V24Z"/><path class="cls-2" d="M252.88,38.42l5.59.94A9.18,9.18,0,0,1,255.06,44a10,10,0,0,1-5.82,1.61c-3.69,0-6.41-1.21-8.18-3.62a12.12,12.12,0,0,1-2.1-7.31q0-5.26,2.75-8.25a9.08,9.08,0,0,1,7-3,9.39,9.39,0,0,1,7.47,3.13q2.73,3.12,2.62,9.57H244.71a5.62,5.62,0,0,0,1.36,3.88,4.22,4.22,0,0,0,3.23,1.39,3.44,3.44,0,0,0,2.22-.72A4.46,4.46,0,0,0,252.88,38.42Zm.32-5.67A5.41,5.41,0,0,0,251.94,29a4,4,0,0,0-5.95.07,5.2,5.2,0,0,0-1.18,3.64Z"/><path class="cls-2" d="M274.8,45.17V15.89h5.75l12,19.55V15.89H298V45.17h-5.93l-11.8-19.09V45.17Z"/><path class="cls-2" d="M316.51,38.42l5.6.94A9.18,9.18,0,0,1,318.7,44a10,10,0,0,1-5.82,1.61q-5.53,0-8.19-3.62a12.18,12.18,0,0,1-2.09-7.31q0-5.26,2.75-8.25a9.08,9.08,0,0,1,7-3,9.4,9.4,0,0,1,7.47,3.13q2.73,3.12,2.61,9.57h-14a5.67,5.67,0,0,0,1.35,3.88,4.25,4.25,0,0,0,3.24,1.39,3.44,3.44,0,0,0,2.22-.72A4.39,4.39,0,0,0,316.51,38.42Zm.32-5.67A5.46,5.46,0,0,0,315.58,29a4.06,4.06,0,0,0-6,.07,5.2,5.2,0,0,0-1.17,3.64Z"/><path class="cls-2" d="M326.82,24h5.23v3.12a7.89,7.89,0,0,1,2.75-2.6,7.58,7.58,0,0,1,3.86-1,8.1,8.1,0,0,1,6.27,2.9c1.72,1.93,2.57,4.62,2.57,8.06s-.86,6.3-2.59,8.26a8.11,8.11,0,0,1-6.29,2.95,7.25,7.25,0,0,1-3.19-.7,10.85,10.85,0,0,1-3-2.4V53.23h-5.61Zm5.55,10.24q0,3.59,1.42,5.29a4.33,4.33,0,0,0,3.45,1.7,4.05,4.05,0,0,0,3.25-1.56c.87-1.05,1.3-2.76,1.3-5.15a7.62,7.62,0,0,0-1.34-4.95,4.12,4.12,0,0,0-3.31-1.62,4.29,4.29,0,0,0-3.41,1.59A7,7,0,0,0,332.37,34.2Z"/><path class="cls-2" d="M356.15,30.43l-5.09-.92A7.93,7.93,0,0,1,354,25q2.1-1.49,6.23-1.48a13.42,13.42,0,0,1,5.59.89,5.52,5.52,0,0,1,2.59,2.26,11.53,11.53,0,0,1,.75,5l-.06,6.55a22.65,22.65,0,0,0,.27,4.12,12.26,12.26,0,0,0,1,2.85h-5.55c-.15-.38-.33-.93-.54-1.66-.1-.33-.16-.55-.2-.66A10.29,10.29,0,0,1,361,45a8.88,8.88,0,0,1-3.49.7,7.24,7.24,0,0,1-5.16-1.78,5.91,5.91,0,0,1-1.89-4.49,6.07,6.07,0,0,1,.86-3.21,5.59,5.59,0,0,1,2.4-2.16,19.27,19.27,0,0,1,4.47-1.3,31.76,31.76,0,0,0,5.45-1.38v-.56a2.92,2.92,0,0,0-.8-2.31,4.79,4.79,0,0,0-3-.69,4,4,0,0,0-2.33.59A4.18,4.18,0,0,0,356.15,30.43ZM363.66,35a34.17,34.17,0,0,1-3.42.86,10.22,10.22,0,0,0-3.05,1,2.35,2.35,0,0,0-1.1,2,2.73,2.73,0,0,0,.88,2,3,3,0,0,0,2.24.86,4.82,4.82,0,0,0,2.89-1,3.47,3.47,0,0,0,1.34-1.85,10.91,10.91,0,0,0,.22-2.74Z"/><path class="cls-2" d="M374.7,45.17V15.89h5.61V45.17Z"/><path class="cls-1" d="M93.81,69.77V59.05H90V56.87h10.24v2.18H96.42V69.77Z"/><path class="cls-1" d="M103.27,69.77H100.8V60.43h2.29v1.32a4.1,4.1,0,0,1,1.06-1.24,2,2,0,0,1,1.07-.3,3.16,3.16,0,0,1,1.63.47l-.77,2.15a2.22,2.22,0,0,0-1.16-.4,1.39,1.39,0,0,0-.88.29,1.88,1.88,0,0,0-.56,1,14.45,14.45,0,0,0-.21,3.13Z"/><path class="cls-1" d="M113.32,66.79l2.46.42a4,4,0,0,1-1.5,2.06,4.39,4.39,0,0,1-2.56.71,4.17,4.17,0,0,1-3.61-1.6,5.37,5.37,0,0,1-.92-3.21,5.21,5.21,0,0,1,1.21-3.64,4,4,0,0,1,3.07-1.32,4.14,4.14,0,0,1,3.29,1.38,6.08,6.08,0,0,1,1.16,4.22h-6.2a2.53,2.53,0,0,0,.6,1.71,1.87,1.87,0,0,0,1.43.61,1.51,1.51,0,0,0,1-.32A1.88,1.88,0,0,0,113.32,66.79Zm.14-2.5a2.42,2.42,0,0,0-.55-1.63,1.78,1.78,0,0,0-2.62,0,2.29,2.29,0,0,0-.52,1.6Z"/><path class="cls-1" d="M117.84,69.77V56.87h2.47v6.84l2.9-3.28h3l-3.19,3.41,3.42,5.93h-2.67l-2.35-4.2-1.15,1.2v3Z"/><path class="cls-1" d="M127.86,69.77V56.87h2.47v6.84l2.89-3.28h3.05l-3.2,3.41,3.42,5.93h-2.66l-2.35-4.2-1.15,1.2v3Z"/><path class="cls-1" d="M138,59.16V56.87h2.47v2.29Zm0,10.61V60.43h2.47v9.34Z"/><path class="cls-1" d="M151.46,69.77H149V65a7.19,7.19,0,0,0-.16-2,1.37,1.37,0,0,0-.51-.69,1.5,1.5,0,0,0-.86-.25,1.94,1.94,0,0,0-1.15.36,1.76,1.76,0,0,0-.7.93,7.9,7.9,0,0,0-.19,2.15v4.23H143V60.43h2.29V61.8a3.75,3.75,0,0,1,3.08-1.59,3.65,3.65,0,0,1,1.5.3,2.56,2.56,0,0,1,1,.75,2.93,2.93,0,0,1,.49,1,7.86,7.86,0,0,1,.13,1.66Z"/><path class="cls-1" d="M153.74,70.38l2.82.34a1,1,0,0,0,.33.68,1.82,1.82,0,0,0,1.11.26,2.81,2.81,0,0,0,1.45-.29,1.16,1.16,0,0,0,.49-.62,3.58,3.58,0,0,0,.12-1.13V68.25a3.36,3.36,0,0,1-2.8,1.52,3.44,3.44,0,0,1-3-1.6,5.37,5.37,0,0,1-.87-3.13,5.14,5.14,0,0,1,1.14-3.59,3.65,3.65,0,0,1,2.81-1.24,3.41,3.41,0,0,1,2.85,1.53V60.43h2.32v8.38a8.06,8.06,0,0,1-.28,2.47,3,3,0,0,1-.76,1.28,3.34,3.34,0,0,1-1.32.73,6.73,6.73,0,0,1-2.08.27,5.37,5.37,0,0,1-3.36-.82,2.53,2.53,0,0,1-1-2.06C153.73,70.6,153.73,70.5,153.74,70.38ZM156,64.9a3.41,3.41,0,0,0,.57,2.18,1.79,1.79,0,0,0,1.42.69,2,2,0,0,0,1.53-.71,3.06,3.06,0,0,0,.63-2.1,3.26,3.26,0,0,0-.6-2.15A1.9,1.9,0,0,0,158,62.1a1.86,1.86,0,0,0-1.47.7A3.25,3.25,0,0,0,156,64.9Z"/><path class="cls-1" d="M181.4,68.19l-1.5,1.91a8.9,8.9,0,0,1-2.11-1.48,5.18,5.18,0,0,1-1.66,1A6,6,0,0,1,174,70a4.64,4.64,0,0,1-3.63-1.35,3.53,3.53,0,0,1-.94-2.41,3.65,3.65,0,0,1,.74-2.23,6.06,6.06,0,0,1,2.21-1.72,6.85,6.85,0,0,1-1-1.49,3.05,3.05,0,0,1-.34-1.34,2.51,2.51,0,0,1,.94-2,3.9,3.9,0,0,1,2.67-.82,3.75,3.75,0,0,1,2.61.86,2.68,2.68,0,0,1,.94,2.08,2.6,2.6,0,0,1-.47,1.49,6.16,6.16,0,0,1-1.88,1.59L177.7,65a5.85,5.85,0,0,0,.54-1.47l2.24.52a15.3,15.3,0,0,1-.58,1.73,4.86,4.86,0,0,1-.53.92,9.28,9.28,0,0,0,1.07.85A7,7,0,0,0,181.4,68.19Zm-7.7-4.33a3.46,3.46,0,0,0-1.27,1,2.17,2.17,0,0,0-.42,1.24,1.73,1.73,0,0,0,.52,1.31,1.92,1.92,0,0,0,1.4.5,2.71,2.71,0,0,0,1.12-.23,4.73,4.73,0,0,0,1.17-.75Zm1-2.68.67-.51a1.55,1.55,0,0,0,.74-1.13,1.06,1.06,0,0,0-.36-.81,1.37,1.37,0,0,0-1-.34,1.32,1.32,0,0,0-.92.3.86.86,0,0,0-.34.68,1.92,1.92,0,0,0,.56,1.11Z"/><path class="cls-1" d="M188,69.77V56.87h5.48a9.36,9.36,0,0,1,3,.35,2.88,2.88,0,0,1,1.5,1.24,3.65,3.65,0,0,1,.57,2,3.44,3.44,0,0,1-.86,2.39,4.11,4.11,0,0,1-2.55,1.2,5.64,5.64,0,0,1,1.4,1.08A15,15,0,0,1,198,67.25l1.57,2.52h-3.11L194.61,67a21.71,21.71,0,0,0-1.37-1.9,1.93,1.93,0,0,0-.79-.53,4.12,4.12,0,0,0-1.31-.15h-.53v5.39Zm2.6-7.44h1.93a10.23,10.23,0,0,0,2.34-.16,1.4,1.4,0,0,0,.73-.55,1.65,1.65,0,0,0,.26-1,1.56,1.56,0,0,0-.34-1,1.62,1.62,0,0,0-1-.5c-.21,0-.85-.05-1.9-.05h-2Z"/><path class="cls-1" d="M206.4,66.79l2.46.42a4,4,0,0,1-1.5,2.06,4.39,4.39,0,0,1-2.56.71,4.16,4.16,0,0,1-3.6-1.6,5.3,5.3,0,0,1-.93-3.21,5.17,5.17,0,0,1,1.22-3.64,4,4,0,0,1,3.07-1.32,4.13,4.13,0,0,1,3.28,1.38A6.08,6.08,0,0,1,209,65.81h-6.19a2.47,2.47,0,0,0,.59,1.71,1.87,1.87,0,0,0,1.43.61,1.51,1.51,0,0,0,1-.32A1.88,1.88,0,0,0,206.4,66.79Zm.14-2.5a2.42,2.42,0,0,0-.55-1.63,1.78,1.78,0,0,0-2.62,0,2.29,2.29,0,0,0-.52,1.6Z"/><path class="cls-1" d="M210.14,67.1l2.48-.38a1.87,1.87,0,0,0,.64,1.1,2.18,2.18,0,0,0,1.36.37,2.49,2.49,0,0,0,1.44-.35.8.8,0,0,0,.32-.66.7.7,0,0,0-.17-.47,2.15,2.15,0,0,0-.83-.32,13.07,13.07,0,0,1-3.79-1.21,2.39,2.39,0,0,1-1.11-2.1,2.59,2.59,0,0,1,1-2,4.48,4.48,0,0,1,3-.83,5.14,5.14,0,0,1,2.85.63,3.2,3.2,0,0,1,1.29,1.85l-2.33.43a1.42,1.42,0,0,0-.57-.84,2.11,2.11,0,0,0-1.19-.29,2.71,2.71,0,0,0-1.4.27.58.58,0,0,0-.28.5.54.54,0,0,0,.24.45,9.19,9.19,0,0,0,2.31.7,6.78,6.78,0,0,1,2.76,1.1,2.27,2.27,0,0,1,.77,1.84,2.79,2.79,0,0,1-1.07,2.2,4.7,4.7,0,0,1-3.17.93,5.16,5.16,0,0,1-3-.78A3.51,3.51,0,0,1,210.14,67.1Z"/><path class="cls-1" d="M226.44,66.79l2.46.42a4.07,4.07,0,0,1-1.5,2.06,4.43,4.43,0,0,1-2.57.71,4.16,4.16,0,0,1-3.6-1.6,5.3,5.3,0,0,1-.92-3.21,5.16,5.16,0,0,1,1.21-3.64,4,4,0,0,1,3.07-1.32,4.15,4.15,0,0,1,3.29,1.38A6.14,6.14,0,0,1,229,65.81h-6.19a2.53,2.53,0,0,0,.6,1.71,1.85,1.85,0,0,0,1.42.61,1.54,1.54,0,0,0,1-.32A2,2,0,0,0,226.44,66.79Zm.14-2.5a2.42,2.42,0,0,0-.56-1.63,1.71,1.71,0,0,0-1.28-.56,1.73,1.73,0,0,0-1.34.59,2.34,2.34,0,0,0-.52,1.6Z"/><path class="cls-1" d="M232.89,63.27l-2.24-.4a3.44,3.44,0,0,1,1.3-2,4.71,4.71,0,0,1,2.74-.66,5.76,5.76,0,0,1,2.47.4,2.45,2.45,0,0,1,1.14,1,5.09,5.09,0,0,1,.33,2.21l0,2.89a9.84,9.84,0,0,0,.12,1.81,5.29,5.29,0,0,0,.44,1.26h-2.44a6.92,6.92,0,0,1-.24-.73,2.11,2.11,0,0,0-.09-.29,4.5,4.5,0,0,1-1.35.92,4,4,0,0,1-1.54.31,3.18,3.18,0,0,1-2.28-.79,2.61,2.61,0,0,1-.83-2,2.71,2.71,0,0,1,.38-1.41,2.51,2.51,0,0,1,1.06-1,8.19,8.19,0,0,1,2-.57,13.67,13.67,0,0,0,2.4-.61v-.25a1.29,1.29,0,0,0-.35-1,2.14,2.14,0,0,0-1.33-.31,1.49,1.49,0,0,0-1.63,1.17Zm3.31,2a15.21,15.21,0,0,1-1.51.38,4.37,4.37,0,0,0-1.34.43,1,1,0,0,0-.49.87,1.22,1.22,0,0,0,.39.9,1.37,1.37,0,0,0,1,.37,2.14,2.14,0,0,0,1.27-.43,1.57,1.57,0,0,0,.59-.82,4.63,4.63,0,0,0,.1-1.21Z"/><path class="cls-1" d="M243.43,69.77H241V60.43h2.29v1.32a4.1,4.1,0,0,1,1.06-1.24,1.94,1.94,0,0,1,1.07-.3,3.19,3.19,0,0,1,1.63.47l-.77,2.15a2.24,2.24,0,0,0-1.16-.4,1.37,1.37,0,0,0-.88.29,2,2,0,0,0-.57,1,15.4,15.4,0,0,0-.2,3.13Z"/><path class="cls-1" d="M256.21,63.19l-2.43.44a1.79,1.79,0,0,0-.56-1.1,1.67,1.67,0,0,0-1.13-.37,1.81,1.81,0,0,0-1.47.64,3.22,3.22,0,0,0-.55,2.13,3.81,3.81,0,0,0,.55,2.35,1.87,1.87,0,0,0,1.5.68,1.67,1.67,0,0,0,1.16-.4,2.4,2.4,0,0,0,.63-1.37l2.43.41a4.38,4.38,0,0,1-1.45,2.52A4.51,4.51,0,0,1,252,70a4.25,4.25,0,0,1-3.27-1.3,5.87,5.87,0,0,1,0-7.18,4.32,4.32,0,0,1,3.3-1.29,4.52,4.52,0,0,1,2.72.74A4,4,0,0,1,256.21,63.19Z"/><path class="cls-1" d="M260.55,56.87v4.74a3.69,3.69,0,0,1,4.4-1.08,2.52,2.52,0,0,1,1,.81,3.05,3.05,0,0,1,.48,1.09,10.4,10.4,0,0,1,.12,1.86v5.48h-2.47V64.83A7.44,7.44,0,0,0,264,63a1.16,1.16,0,0,0-.5-.63,1.53,1.53,0,0,0-.89-.24,2,2,0,0,0-1.1.3,1.73,1.73,0,0,0-.71.91,5.36,5.36,0,0,0-.22,1.78v4.68h-2.47V56.87Z"/><path class="cls-1" d="M274.12,69.77V56.87h2.6V62h5.1V56.87h2.61v12.9h-2.61V64.13h-5.1v5.64Z"/><path class="cls-1" d="M293.25,69.77v-1.4a3.64,3.64,0,0,1-1.34,1.18,3.88,3.88,0,0,1-1.76.43,3.39,3.39,0,0,1-1.69-.42,2.38,2.38,0,0,1-1.08-1.16,5.24,5.24,0,0,1-.33-2.06V60.43h2.47v4.29a12.18,12.18,0,0,0,.13,2.41,1.34,1.34,0,0,0,.5.7,1.49,1.49,0,0,0,.92.26,1.93,1.93,0,0,0,1.13-.34,1.82,1.82,0,0,0,.69-.87,10.18,10.18,0,0,0,.18-2.51V60.43h2.47v9.34Z"/><path class="cls-1" d="M298,69.77V56.87h2.47v4.65a3.49,3.49,0,0,1,2.71-1.31A3.67,3.67,0,0,1,306,61.45,5.14,5.14,0,0,1,307.12,65,5.39,5.39,0,0,1,306,68.68a3.5,3.5,0,0,1-4.35.9,3.87,3.87,0,0,1-1.34-1.19v1.38Zm2.45-4.88a3.93,3.93,0,0,0,.46,2.15,1.94,1.94,0,0,0,1.7,1,1.75,1.75,0,0,0,1.4-.7,3.45,3.45,0,0,0,.57-2.2,3.64,3.64,0,0,0-.58-2.31,1.83,1.83,0,0,0-1.48-.71,1.86,1.86,0,0,0-1.48.7A3.16,3.16,0,0,0,300.45,64.89Z"/><path class="cls-1" d="M314.13,69.77V56.87h4.17a14.91,14.91,0,0,1,3.1.2,3.3,3.3,0,0,1,1.85,1.26,4,4,0,0,1,.75,2.51,4.13,4.13,0,0,1-.43,2,3.62,3.62,0,0,1-1.09,1.28,4,4,0,0,1-1.35.61,15.37,15.37,0,0,1-2.7.18h-1.7v4.87Zm2.6-10.72v3.66h1.42a6.94,6.94,0,0,0,2.06-.2,1.72,1.72,0,0,0,.81-.63,1.74,1.74,0,0,0,.3-1,1.69,1.69,0,0,0-.41-1.16,1.88,1.88,0,0,0-1.05-.57,12.24,12.24,0,0,0-1.87-.09Z"/><path class="cls-1" d="M328.69,69.77l-3.76-9.34h2.59l1.76,4.76.51,1.59c.13-.4.22-.67.25-.8s.17-.52.27-.79l1.77-4.76h2.55l-3.72,9.34Z"/><path class="cls-1" d="M340.42,60.43v2h-1.69v3.76a9.53,9.53,0,0,0,0,1.33.53.53,0,0,0,.22.31.64.64,0,0,0,.42.13,3.12,3.12,0,0,0,1-.24l.21,1.92a5,5,0,0,1-1.95.37,3.06,3.06,0,0,1-1.2-.23,1.76,1.76,0,0,1-.79-.58,2.35,2.35,0,0,1-.35-1,12.41,12.41,0,0,1-.08-1.74V62.4h-1.13v-2h1.13V58.57l2.48-1.44v3.3Z"/><path class="cls-1" d="M342.14,69.77V67.29h2.47v2.48Z"/><path class="cls-1" d="M352.23,69.77V57h2.61V67.59h6.47v2.18Z"/><path class="cls-1" d="M367.43,60.43v2h-1.69v3.76a9.53,9.53,0,0,0,.05,1.33.49.49,0,0,0,.22.31.64.64,0,0,0,.42.13,3.18,3.18,0,0,0,1-.24l.21,1.92a5,5,0,0,1-1.95.37,3.11,3.11,0,0,1-1.21-.23,1.72,1.72,0,0,1-.78-.58,2.22,2.22,0,0,1-.35-1,12.41,12.41,0,0,1-.08-1.74V62.4h-1.13v-2h1.13V58.57l2.48-1.44v3.3Z"/><path class="cls-1" d="M377.71,69.77h-2.3V68.39a3.62,3.62,0,0,1-1.35,1.19,3.33,3.33,0,0,1-1.57.4,3.56,3.56,0,0,1-2.75-1.3,5.26,5.26,0,0,1-1.15-3.62,5.19,5.19,0,0,1,1.12-3.61,3.64,3.64,0,0,1,2.82-1.24,3.5,3.5,0,0,1,2.71,1.31V56.87h2.47Zm-6.6-4.88a4.25,4.25,0,0,0,.42,2.17,1.86,1.86,0,0,0,1.67,1,1.82,1.82,0,0,0,1.45-.72,3.36,3.36,0,0,0,.6-2.17,3.74,3.74,0,0,0-.58-2.32,1.91,1.91,0,0,0-3,0A3.16,3.16,0,0,0,371.11,64.89Z"/><path class="cls-1" d="M380.15,69.77V67.29h2.47v2.48Z"/></g></g></svg>