<?xml version="1.0" encoding="utf-8"?>
<!-- Generator: Adobe Illustrator 23.0.3, SVG Export Plug-In . SVG Version: 6.00 Build 0)  -->
<svg version="1.1" id="Capa_1" xmlns="http://www.w3.org/2000/svg" xmlns:xlink="http://www.w3.org/1999/xlink" x="0px" y="0px"
	 viewBox="0 0 512 512" style="enable-background:new 0 0 512 512;" xml:space="preserve">
<style type="text/css">
	.st0{fill:#FFFFFF;}
	.st1{fill:#F78200;}
</style>
<g>
	<g>
		<path class="st0" d="M131.8,80.1C70.2,80.1,20,130.2,20,191.8c0,61.6,50.1,111.7,111.7,111.7s111.7-50.1,111.7-111.7
			C243.5,130.2,193.4,80.1,131.8,80.1z M131.8,288.5c-53.3,0-96.7-43.4-96.7-96.7c0-53.3,43.4-96.7,96.7-96.7s96.7,43.4,96.7,96.7
			C228.5,245.2,185.1,288.5,131.8,288.5z"/>
		
			<ellipse transform="matrix(0.7071 -0.7071 0.7071 0.7071 -97.0639 149.367)" class="st1" cx="131.8" cy="191.8" rx="96.7" ry="96.7"/>
	</g>
</g>
<g>
	<g>
		<path class="st0" d="M165.2,175.3c4.1,0,7.5-3.4,7.5-7.5v-8c0-17.4-14.2-31.6-31.6-31.6h-0.5v-16.5c0-4.2-3.4-7.5-7.5-7.5
			s-7.5,3.4-7.5,7.5v16.7c-18,1.8-32.1,17-32.1,35.4c0,19.6,16,35.6,35.6,35.6h8c11.3,0,20.5,9.2,20.5,20.5s-9.2,20.5-20.5,20.5h-12
			c-9.1,0-16.5-7.4-16.5-16.5c0-4.1-3.4-7.5-7.5-7.5s-7.5,3.4-7.5,7.5c0,17.4,14.2,31.6,31.6,31.6h0.5V272c0,4.1,3.4,7.5,7.5,7.5
			c4.1,0,7.5-3.4,7.5-7.5v-16.7c18-1.8,32.1-17,32.1-35.4c0-19.6-16-35.6-35.6-35.6h-8c-11.3,0-20.5-9.2-20.5-20.5
			s9.2-20.5,20.5-20.5h12c9.1,0,16.5,7.4,16.5,16.5v8C157.7,171.9,161.1,175.3,165.2,175.3z"/>
	</g>
</g>
<g>
	<g>
		<path class="st0" d="M252,367.7c4.1,0,7.5-3.4,7.5-7.5v-48.1c0-4.1-3.4-7.5-7.5-7.5H43.6c-4.2,0-7.5,3.4-7.5,7.5v40.6h-8.5
			c-4.1,0-7.5,3.4-7.5,7.5v48.1c0,4.1,3.4,7.5,7.5,7.5h8.5v33.1h-8.5c-4.1,0-7.5,3.4-7.5,7.5v48.1c0,4.1,3.4,7.5,7.5,7.5H236
			c4.1,0,7.5-3.4,7.5-7.5v-40.6h8.5c4.2,0,7.5-3.4,7.5-7.5v-48.1c0-4.1-3.4-7.5-7.5-7.5h-8.5v-33.1L252,367.7L252,367.7z
			 M35.1,400.8v-33.1h193.4v33.1H35.1z M228.5,497H35.1v-33.1h193.4V497z M244.5,415.8v33.1H51.1v-33.1H244.5z M51.1,352.7v-33.1
			h193.4v33.1L51.1,352.7L51.1,352.7z"/>
	</g>
</g>
<g>
	<g>
		<path class="st0" d="M484.5,151.3h-48.6v233c0,4.2-3.4,7.5-7.5,7.5H316.1c-4.2,0-7.5-3.4-7.5-7.5v-233H260
			c-6.2,0-9.8-7.5-5.8-12.3L366.5,2.7c3-3.6,8.6-3.6,11.6,0L490.3,139C494.3,143.8,490.7,151.3,484.5,151.3z"/>
	</g>
</g>
<g>
	<g>
		<path class="st0" d="M428.4,416.8H316.1c-4.1,0-7.5,3.4-7.5,7.5s3.4,7.5,7.5,7.5h112.2c4.1,0,7.5-3.4,7.5-7.5
			S432.5,416.8,428.4,416.8z"/>
	</g>
</g>
<g>
	<g>
		<path class="st0" d="M428.4,456.9H316.1c-4.1,0-7.5,3.4-7.5,7.5s3.4,7.5,7.5,7.5h112.2c4.1,0,7.5-3.4,7.5-7.5
			S432.5,456.9,428.4,456.9z"/>
	</g>
</g>
<g>
	<g>
		<path class="st0" d="M428.4,497H316.1c-4.1,0-7.5,3.4-7.5,7.5c0,4.1,3.4,7.5,7.5,7.5h112.2c4.1,0,7.5-3.4,7.5-7.5
			C435.9,500.3,432.5,497,428.4,497z"/>
	</g>
</g>
</svg>
