<svg xmlns="http://www.w3.org/2000/svg" viewBox="0 0 62.36 62.36"><defs><style>.cls-1{fill:#fff;}.cls-2{fill:#3860ad;}.cls-3{fill:#ed2c26;stroke:#3860ad;stroke-width:0.43px;}</style></defs><title>nma</title><g id="Layer_2" data-name="Layer 2"><g id="Layer_1-2" data-name="Layer 1"><rect class="cls-1" width="62.36" height="62.36"/><path class="cls-2" d="M17.86,47.11c0-.35-.49-.74-1.05-.86a10.46,10.46,0,0,1,1.89.18,4.34,4.34,0,0,1,1.42.92c.83.62,1.71,1.16,2.72,1.83-.07-1,.19-2.5-.61-2.83h2a1.07,1.07,0,0,0-.81,1.1,12.71,12.71,0,0,0,0,1.38v1.38a2.88,2.88,0,0,1-.86-.19c-1.27-.85-3.49-2.86-4.13-2.86,0,0-.17,2.86.34,3.05H17.52C18,50.15,17.86,48.37,17.86,47.11Z"/><path class="cls-2" d="M35.89,49.88l1.24.53H34l0-.11.76-.19V47.45l-.52.59-2.17,2.43-2.79-3.16v2.82l.79.15v.13H27.39l1.24-.49V46.84l-1.31-.47c.93-.11,1.64,0,2.35-.07l2.68,3.08,1.87-2.17s.48-.6.65-.86h2.27l-1.25.53Z"/><path class="cls-2" d="M47.28,50.13l-3-3.87s-2.69,3.25-2.9,3.56-.65.34-1.19.6h2.57L42,50.06l.63-1h2.62c.24.27.49.57.77.9l-.77.42h2.89v-.13Zm-4.51-1.29,1.1-1.61,1.2,1.61Z"/><path class="cls-2" d="M5.65,52.7A2.73,2.73,0,0,1,3.8,50.77c0-.12-.15-.23-.15-.35a21.83,21.83,0,0,1,0-3.88,9.8,9.8,0,0,1,1.75-4.13C6.67,40.71,7.83,39,9,37.24s2.52-3.7,3.84-5.49c1.55-2.09,3-4.25,4.54-6.34,1.09-1.48,2.11-3,3.17-4.51s2.07-3.15,3.23-4.64,1.9-2.83,2.87-4.22c1.16-1.66,2.35-3.29,3.53-4.93A4.7,4.7,0,0,1,31,6.06a1.68,1.68,0,0,1,2.53.54c.6,1,1.36,1.83,2,2.78,1,1.63,2.23,3.16,3.32,4.75,1.24,1.8,2.48,3.6,3.74,5.39.88,1.25,1.75,2.52,2.63,3.78l3.09,4.4q1.35,1.95,2.71,3.89c1.09,1.53,2.16,3.08,3.24,4.62s2.1,2.92,3.06,4.43,2.14,2.74,2.61,4.48a3.55,3.55,0,0,1,.16.9c0,1.48,0,3,0,4.44a1.78,1.78,0,0,1-.52,1.44,5.12,5.12,0,0,1-1.61.78,3.07,3.07,0,0,1-1,0ZM35,9.67c-.51-.68-2.23-3.2-3-3.39a3.57,3.57,0,0,0-1.67,1.43C29.37,9.23,6.79,41.42,5.55,43.42a5.87,5.87,0,0,0-1.09,3.3c0,1.39,0,2.78,0,4.16l.87.88a9.06,9.06,0,0,0,3.89.38H46.16c2.09,0,4.17,0,6.25,0s4.11.26,6.16-.35l.94-.88c0-1.28,0-2.53,0-3.78a7.5,7.5,0,0,0-1.59-4.48c-1-1.47-2.11-2.92-3.13-4.4s-2-3.18-3.17-4.64C50,31.56,35,9.79,35,9.67Z"/><polygon class="cls-2" points="31.42 44.85 5.75 44.85 31.42 7.49 31.42 44.85"/><polygon class="cls-3" points="38.82 27.33 50.29 44.85 31.42 44.85 31.42 7.72 44.51 27.33 38.82 27.33"/><path class="cls-1" d="M35.82,24.88a3,3,0,0,0,3-3,3.2,3.2,0,0,1-1.34,1.58l-.25-.19.49-.38-.6-.15.32-.54-.62.09.09-.62-.54.32-.16-.61-.37.5-.38-.5-.15.61-.54-.32.09.62-.62-.09.32.54-.61.16.5.37-.25.19a3.1,3.1,0,0,1-1.34-1.57,3,3,0,0,0,3,3Z"/><path class="cls-1" d="M35.19,36.52l-1.26-.16.77,1-1.18.5,1.18.49-.77,1,1.26-.16L35,40.5l1-.77.5,1.18.5-1.18,1,.77-.16-1.26,1.27.16-.77-1,1.17-.5-1.17-.5.77-1-1.27.15.16-1.26-1,.76-.5-1.17L36.06,36l-1-.77.15,1.27Z"/></g></g></svg>