<svg xmlns="http://www.w3.org/2000/svg" viewBox="0 0 62.36 62.36"><defs><style>.cls-1{fill:#fff;}.cls-2{fill:#363e8f;}.cls-3{fill:#dc1f2f;}</style></defs><title>ntb</title><g id="Layer_2" data-name="Layer 2"><g id="Layer_1-2" data-name="Layer 1"><rect class="cls-1" width="62.36" height="62.36"/><path class="cls-2" d="M26.14,37.54c.25-.42.47-.83.72-1.22a.48.48,0,0,1,.32-.14c.39,0,.77,0,1.15,0,.58,0,.68-.14.68-.71V29.1H30.1v6.52l.12,0L32,34.27l8.31-6.64a1.88,1.88,0,0,1,1.47-.32,3.46,3.46,0,0,1,1.91,1.1c2.7,2.73,5.45,5.41,8.19,8.1l.27.25,2.31-2c.42-.37.57-.38,1,0,1,.67,1.89,1.36,2.83,2,.63.45,1.25.92,1.89,1.36a.57.57,0,0,1,.27.54c0,.62,0,1.25,0,1.94l-1.25-.92-3.83-2.87c-.32-.24-.7-.18-1.08.18-1.6,1.57-3.21,3.11-4.78,4.7-1.25,1.27-2.45,2.59-3.67,3.91a.59.59,0,0,0-.12.49,6.66,6.66,0,0,0,.66,1.37A23.89,23.89,0,0,1,49,52.8a40.07,40.07,0,0,1,2,8.07l-1.51.07c-.13-.63-.25-1.28-.39-1.92A32.89,32.89,0,0,0,44.46,47.4,23.67,23.67,0,0,0,36.78,40,17.3,17.3,0,0,0,30,37.7c-1.16-.12-2.32-.11-3.48-.16ZM38,30.25a.48.48,0,0,0,.15.31,5.3,5.3,0,0,0,.66.68c.79.59.86.74,1.65-.15.61-.7.6-.71,1.41-.24a.65.65,0,0,0,.79,0c.62-.5.87-.49,1.47,0a9.24,9.24,0,0,0,.79.61.32.32,0,0,0,.52-.09c.13-.21.19-.41,0-.59s-.62-.65-.92-.95c-.57-.59-1.14-1.19-1.75-1.72a1.91,1.91,0,0,0-2.14-.31c-.74.53-1.44,1.09-2.15,1.67A1.26,1.26,0,0,0,38,30.25Z"/><path class="cls-2" d="M29.06,48.09H3.24L4.78,47,12,41.91a.74.74,0,0,1,.41-.13h8.12a.69.69,0,0,1,.42.12c2.69,2,5.38,4,8.06,6.06l.14.07Z"/><path class="cls-2" d="M44.39,56.38a1.12,1.12,0,0,1,.61,1v1.69c0,1.25-.13,1.79-1.53,1.79h-8.4V52.09l8.4,0c1.2,0,1.53.22,1.53,1.4v1.83C45,55.9,44.87,56.2,44.39,56.38Zm-1.88,2.28V58c0-.51,0-.57-.57-.57H37.71v1.28Zm-4.8-4.5v1.28h4.23c.53,0,.57-.06.57-.57v-.71Z"/><polygon class="cls-2" points="13.91 60.86 11.36 60.86 5.46 55.91 5.46 60.86 3.02 60.86 3.02 52.11 5.46 52.11 11.36 57.11 11.36 52.11 13.91 52.11 13.91 60.86"/><path class="cls-2" d="M7.57,36.21l4.16-3.68a9.51,9.51,0,0,0,.88-.79,1.5,1.5,0,0,1,1.25-.48c1.35,0,2.71,0,4.06,0,.51,0,.55,0,.58-.52s0-1,0-1.49a2.5,2.5,0,0,1,0-.25h.9c.05,1,.11,2,.13,2.94a.81.81,0,0,0,.32.64L24.09,36c.06,0,.11.11.21.19Z"/><path class="cls-3" d="M3.09,50.43c.09-.51-.2-.73-.58-.89s-.64-.31-.61-.7a1.34,1.34,0,0,1,.63-1.09,1.81,1.81,0,0,1,.12.38c.05.38.23.54.64.54,5.14,0,10.28,0,15.42,0,3.34,0,6.69,0,10,0A2.56,2.56,0,0,0,31,47.47a.89.89,0,0,1,.14,1.16,3,3,0,0,1-.46.61,1.53,1.53,0,0,0-.47,1.19Z"/><path class="cls-3" d="M6.49,35.5a4.3,4.3,0,0,1,.28.57,1,1,0,0,0,1.07.68q7.92,0,15.84,0a2.25,2.25,0,0,0,1.74-.57,6.76,6.76,0,0,1,.8-.57,1.54,1.54,0,0,1-.71,1.72c-.32.18-.64.36-.44.93-.5,0-.93,0-1.36,0a1.1,1.1,0,0,0-1,.38c-.71.76-1.46,1.5-2.21,2.22a.87.87,0,0,1-.53.22c-2.29,0-4.59,0-6.88,0a.89.89,0,0,1-.52-.19c-1-.76-1.92-1.55-2.89-2.32A1.39,1.39,0,0,0,9,38.33c-.58-.06-1.17-.08-1.75-.11l0-.1a1.79,1.79,0,0,0-.44-.34,1.32,1.32,0,0,1-.79-1.35C6.13,35.84,6.21,35.66,6.49,35.5Zm4.94,2.92-.08.12c.48.45,1,.9,1.43,1.37a.93.93,0,0,0,.7.29c1.83,0,3.65,0,5.48,0a1.68,1.68,0,0,0,1.54-.66c.3-.39.67-.71,1.06-1.13Z"/><polygon class="cls-2" points="29.79 54.17 25.78 54.17 25.78 60.88 23.1 60.88 23.1 54.17 19.15 54.17 19.15 52.12 29.79 52.12 29.79 54.17"/><path class="cls-3" d="M30.67,27.16v1.45H17.93V27.12h2.56c.67,0,.74-.06.68-.75a.83.83,0,0,1,.35-.77c.78-.65,1.55-1.32,2.31-2a.34.34,0,0,1,.52,0c.87.69,1.74,1.39,2.63,2.05a.88.88,0,0,1,.43.88c0,.51,0,.51.51.53Zm-6.5-2.37-1.74,2H26Z"/><path class="cls-2" d="M28.38,21.46l.18,1.07H20.18a7.47,7.47,0,0,1,.2-.9c0-.08.23-.16.35-.16,1.13,0,2.25,0,3.37,0Z"/><path class="cls-2" d="M26.14,4.55V5.66c-.38.11-1.05-.26-1,.61H23.65c-.2-.58-.3-.65-1-.62V4.59s.07,0,.1,0c.8-.06.79-.06,1-.84s.34-1.32.52-2a.53.53,0,0,1,.2-.3c.14.56.27,1.11.41,1.67.08.34.17.67.23,1a.47.47,0,0,0,.57.46A3.61,3.61,0,0,1,26.14,4.55Z"/><path class="cls-2" d="M20.71,20.38s0,0,0-.05c.14-1,.14-1,1.13-1h6.09l.2,1Z"/><path class="cls-2" d="M21,18.48l.17-.81h6.34l.2.81Z"/><path class="cls-2" d="M21.48,16.71l.11-.73h5.62l.17.73Z"/><path class="cls-2" d="M26.9,14.45,27,15H21.8l.11-.54Z"/><path class="cls-2" d="M29,24.69H27.38a.43.43,0,0,1-.26-.11c-.33-.27-.64-.56-1-.85l.08-.09c.65-.06,1.76-.07,2.41-.09Z"/><path class="cls-2" d="M20,23.55h2.72c-.41.41-.75.78-1.11,1.12-.06.06-.22,0-.33,0H19.71Z"/><path class="cls-2" d="M24.4,35a7.51,7.51,0,0,0-.46-.69c-.27-.33-.27-.48.08-.75.19-.15.39-.28.58-.42l-.14-.21a1.36,1.36,0,0,0-.36.09.66.66,0,0,1-.92-.05.91.91,0,0,1,.06-1,1.06,1.06,0,0,1,1.45-.11.81.81,0,0,1,.19.56,1.8,1.8,0,0,1-.79,1.43c.14.33.28.63.39.94C24.5,34.87,24.42,35,24.4,35Zm-.6-3,.73.63c.07-.28.08-.54-.21-.65A1.56,1.56,0,0,0,23.8,32Zm.26.57c0-.23-.42-.16-.6-.23-.12.28-.12.5.22.63C23.79,32.87,24.06,32.83,24.06,32.59Z"/><path class="cls-2" d="M26.55,13l.08.44h-4.5l.1-.44Z"/><path class="cls-2" d="M16.81,30.41H15l.91-1.76Z"/><path class="cls-2" d="M26.29,11.75l.05.36H22.42l.07-.36Z"/><path class="cls-2" d="M22.72,10.68l0-.34s.05,0,.07,0c1,0,2,0,2.94,0,.12,0,.24.19.36.28l-.08.1Z"/><path class="cls-2" d="M20.37,31.3c.27-.45.68-.42,1.1-.39a5.26,5.26,0,0,1,1,0,1.21,1.21,0,0,1,.7.45c.1.17-.12.39-.42.32,0-.29-.07-.55-.41-.46s-.37.38-.6.38-.24-.4-.4-.52-.27.12-.44.21l.22.35C20.87,31.71,20.87,31.71,20.37,31.3Z"/><path class="cls-2" d="M27.32,31.8c-.12-.14-.22-.34-.38-.41s-.28.17-.39.29-.38.26-.5,0-.11-.34-.36-.24-.37.22-.21.48c0,0,0,.07,0,.21-.16-.14-.34-.23-.38-.36s.1-.26.2-.35a.63.63,0,0,1,.69-.16,2.74,2.74,0,0,0,.86,0c.18,0,.38-.07.52,0a1.71,1.71,0,0,1,.44.41l-.43.29Z"/><path class="cls-2" d="M23.36,30.66c-.64,0-.88-.67-1.49-.56a2.86,2.86,0,0,0-1.48.4l-.1-.07a1,1,0,0,1,.18-.29,2.49,2.49,0,0,1,2.66.14A1.33,1.33,0,0,1,23.36,30.66Z"/><path class="cls-2" d="M25.53,8.35H23.24l0-.39c.68,0,1.35,0,2,0,.11,0,.21.18.31.29Z"/><path class="cls-2" d="M29.35,26.19H27.94v-.55l.89-.05C29.29,25.58,29.37,25.68,29.35,26.19Z"/><path class="cls-2" d="M25.76,9.44H23l0-.11c.11-.07.22-.19.33-.19.75,0,1.51,0,2.26,0C25.75,9.12,25.84,9.2,25.76,9.44Z"/><path class="cls-2" d="M19.37,26.19c-.14-.63.25-.63,1.3-.55v.55Z"/><path class="cls-2" d="M25.24,6.88l.1.33H23.42c.12-.46.48-.38.8-.38Z"/><path class="cls-2" d="M27.9,30.75c-.93-1-1.85-.5-2.77,0l0-.11a2.79,2.79,0,0,1,.39-.31,2.46,2.46,0,0,1,2.27-.1C28,30.36,28,30.4,27.9,30.75Z"/><path class="cls-3" d="M24.24,30.48c-.25,0-.39-.26-.43-.43s.16-.44.41-.45.48.13.45.41S24.49,30.48,24.24,30.48Z"/></g></g></svg>