<svg xmlns="http://www.w3.org/2000/svg" xmlns:xlink="http://www.w3.org/1999/xlink" viewBox="0 0 190.09 24.26"><defs><style>.cls-1{fill:#22215e;}.cls-2{fill:#ed1b2e;}.cls-3{fill:#fcb131;}.cls-4{fill:#003473;}.cls-5{fill:#fff;}.cls-6{fill:#0058a0;}.cls-7{fill:#faa61a;}.cls-8{fill:url(#radial-gradient);}.cls-9{fill:#231f20;}.cls-10{fill:url(#radial-gradient-2);}.cls-11{fill:#001722;}.cls-12{fill:#f58220;}.cls-13{fill:url(#linear-gradient);}.cls-14{fill:#fbb15f;}.cls-15{fill:#34679a;}.cls-16{fill:#1c3665;}</style><radialGradient id="radial-gradient" cx="-61.2" cy="915.22" r="22.74" gradientTransform="matrix(1, 0, 0, -1, 148.92, 917.17)" gradientUnits="userSpaceOnUse"><stop offset="0" stop-color="#9fd4f3"/><stop offset="0.07" stop-color="#99d2f2"/><stop offset="0.16" stop-color="#8bcdf1"/><stop offset="0.25" stop-color="#71c6ef"/><stop offset="0.35" stop-color="#51bcea"/><stop offset="0.45" stop-color="#21ade4"/><stop offset="0.5" stop-color="#1aa6df"/><stop offset="1" stop-color="#3078bc"/></radialGradient><radialGradient id="radial-gradient-2" cx="125.3" cy="-476.47" r="2.71" gradientTransform="translate(7.81 480.13) scale(0.99 0.99)" gradientUnits="userSpaceOnUse"><stop offset="0.01" stop-color="#ffefe1"/><stop offset="0.11" stop-color="#ffead8"/><stop offset="0.28" stop-color="#fddcc0"/><stop offset="0.49" stop-color="#fbc698"/><stop offset="0.74" stop-color="#f8a761"/><stop offset="1" stop-color="#f58220"/></radialGradient><linearGradient id="linear-gradient" x1="171.64" y1="0.63" x2="171.64" y2="23.63" gradientUnits="userSpaceOnUse"><stop offset="0" stop-color="#fff"/><stop offset="0.32" stop-color="#fff7e7"/><stop offset="0.75" stop-color="#feedce"/><stop offset="1" stop-color="#feeac4"/></linearGradient></defs><title>payment</title><g id="Layer_2" data-name="Layer 2"><g id="Layer_1-2" data-name="Layer 1"><rect class="cls-1" y="0.38" width="36.92" height="23.5"/><path class="cls-2" d="M21.86,12.13A10.35,10.35,0,1,1,11.51,1.78,10.35,10.35,0,0,1,21.86,12.13Z"/><path class="cls-3" d="M25.41,1.78a10.32,10.32,0,0,0-6.95,2.68,10.92,10.92,0,0,0-1.05,1.1H19.5a9.46,9.46,0,0,1,.79,1.09H16.62A8.93,8.93,0,0,0,16,7.75h4.86a10.34,10.34,0,0,1,.44,1.09H15.59a10.52,10.52,0,0,0-.3,1.1h6.34a10.5,10.5,0,0,1-.3,5.48H15.59A8.56,8.56,0,0,0,16,16.51h4.86a10.59,10.59,0,0,1-.6,1.1H16.62a12.24,12.24,0,0,0,.79,1.1H19.5a10.72,10.72,0,0,1-1,1.09,10.35,10.35,0,1,0,7-18Z"/><path class="cls-3" d="M34.38,17.9a.33.33,0,0,1,.33-.33.33.33,0,0,1,0,.66A.33.33,0,0,1,34.38,17.9Zm.33.25a.25.25,0,1,0,0-.5.25.25,0,0,0,0,.5Zm0-.1H34.6v-.3h.12a.12.12,0,0,1,.08,0,.08.08,0,0,1,0,.07.09.09,0,0,1,0,.08l.06.13h-.08l0-.12h0Zm0-.17h.08s0,0,0,0a0,0,0,0,0,0,0h-.08Z"/><path class="cls-4" d="M9.09,13.26H8.84c-.63,0-1,.21-1,.65a.39.39,0,0,0,.41.43C8.74,14.33,9.07,13.9,9.09,13.26Zm.82,1.91H9l0-.45a1.4,1.4,0,0,1-1.18.52,1,1,0,0,1-1-1.17c0-1,.72-1.64,2-1.64l.46,0a1.23,1.23,0,0,0,0-.28c0-.28-.19-.39-.72-.39a3.92,3.92,0,0,0-1.19.2c0-.07.16-1,.16-1a4.32,4.32,0,0,1,1.34-.23c1,0,1.48.43,1.48,1.25a6.86,6.86,0,0,1-.09.85C10.15,13.52,9.94,14.84,9.91,15.17Z"/><polygon class="cls-4" points="6.33 15.17 5.2 15.17 5.85 11.13 4.41 15.17 3.65 15.17 3.55 11.15 2.87 15.17 1.82 15.17 2.7 9.92 4.32 9.92 4.41 12.86 5.4 9.92 7.2 9.92 6.33 15.17"/><path class="cls-4" d="M26.79,13.26h-.25c-.63,0-.95.21-.95.65a.39.39,0,0,0,.4.43C26.45,14.33,26.78,13.9,26.79,13.26Zm.82,1.91h-.93l0-.45a1.4,1.4,0,0,1-1.17.52,1.05,1.05,0,0,1-1-1.17c0-1,.73-1.64,2-1.64l.46,0a1.23,1.23,0,0,0,0-.28c0-.28-.19-.39-.72-.39a3.92,3.92,0,0,0-1.19.2c0-.07.16-1,.16-1a4.32,4.32,0,0,1,1.34-.23c1,0,1.48.43,1.48,1.25a6.86,6.86,0,0,1-.09.85C27.85,13.52,27.64,14.84,27.61,15.17Z"/><path class="cls-4" d="M14.9,15.1a2.41,2.41,0,0,1-.8.14.82.82,0,0,1-.89-.94,9.67,9.67,0,0,1,.15-1.14c.07-.39.49-2.91.49-2.91H15l-.13.65h.67l-.15,1h-.68c-.13.81-.31,1.83-.31,2s.11.32.38.32a1.08,1.08,0,0,0,.3,0Z"/><path class="cls-4" d="M18.33,15.07a4.05,4.05,0,0,1-1.15.17,1.7,1.7,0,0,1-1.9-1.91c0-1.45.83-2.53,2-2.53a1.43,1.43,0,0,1,1.51,1.55,5.07,5.07,0,0,1-.14,1.05H16.38c-.07.62.32.87,1,.87A2.59,2.59,0,0,0,18.51,14Zm-.63-2.53c0-.09.12-.77-.52-.77-.35,0-.61.27-.71.77Z"/><path class="cls-4" d="M10.59,12.25a1.24,1.24,0,0,0,.85,1.19c.46.21.52.28.52.47s-.19.39-.64.39a3.39,3.39,0,0,1-1-.17s-.14.94-.15,1a4.85,4.85,0,0,0,1.17.13c1.18,0,1.73-.45,1.73-1.43a1.18,1.18,0,0,0-.79-1.19c-.47-.21-.53-.26-.53-.46s.19-.35.55-.35a4.84,4.84,0,0,1,.81.07l.16-1a8.78,8.78,0,0,0-1-.08C11,10.8,10.58,11.46,10.59,12.25Z"/><path class="cls-4" d="M23.79,10.91a2.18,2.18,0,0,1,1,.29L25,10.06a3.14,3.14,0,0,0-1.23-.45,2.27,2.27,0,0,0-1.84,1c-.65-.21-.92.22-1.25.66l-.29.07a3.28,3.28,0,0,0,0-.43h-1c-.14,1.32-.39,2.66-.58,4l-.05.29h1.12c.19-1.22.29-2,.35-2.53l.43-.24c.06-.23.26-.31.65-.3a4.94,4.94,0,0,0-.07.87c0,1.4.75,2.27,2,2.27a3.55,3.55,0,0,0,1-.15l.2-1.2a2.23,2.23,0,0,1-1,.27c-.65,0-1-.48-1-1.28C22.37,11.72,23,10.91,23.79,10.91Z"/><path class="cls-4" d="M33.31,9.92l-.25,1.51A1.42,1.42,0,0,0,32,10.74a1.75,1.75,0,0,0-1.42,1.06c-.47-.1-.95-.26-.95-.26h0c0-.35.05-.57.05-.64h-1c-.14,1.32-.39,2.66-.58,4l-.05.29h1.12c.15-1,.27-1.81.35-2.46.39-.34.58-.65,1-.63a3.74,3.74,0,0,0-.27,1.39c0,1.07.54,1.77,1.35,1.77a1.33,1.33,0,0,0,1-.47l0,.4h1.06l.85-5.25ZM31.9,14.18q-.57,0-.57-.84c0-.84.36-1.44.87-1.44s.59.3.59.84C32.79,13.59,32.42,14.18,31.9,14.18Z"/><polygon class="cls-5" points="6.65 14.85 5.53 14.85 6.17 10.82 4.73 14.85 3.97 14.85 3.87 10.84 3.2 14.85 2.15 14.85 3.02 9.61 4.64 9.61 4.68 12.86 5.77 9.61 7.52 9.61 6.65 14.85"/><path class="cls-5" d="M9.42,13l-.25,0c-.64,0-1,.22-1,.65a.39.39,0,0,0,.4.44C9.07,14,9.4,13.58,9.42,13Zm.81,1.9H9.3l0-.44a1.43,1.43,0,0,1-1.18.52,1.06,1.06,0,0,1-1-1.17c0-1,.73-1.64,2-1.64l.46,0a.91.91,0,0,0,0-.28c0-.28-.2-.39-.72-.39a4,4,0,0,0-1.2.2c0-.08.16-1,.16-1a4.33,4.33,0,0,1,1.35-.23c1,0,1.47.43,1.47,1.25a5.34,5.34,0,0,1-.09.85C10.47,13.21,10.26,14.53,10.23,14.85Z"/><path class="cls-5" d="M25.3,9.75l-.18,1.14a2.06,2.06,0,0,0-1-.29c-.84,0-1.43.81-1.43,2,0,.8.4,1.28,1,1.28a2.19,2.19,0,0,0,1-.27l-.19,1.19a3.37,3.37,0,0,1-1,.16c-1.21,0-2-.87-2-2.27,0-1.87,1-3.19,2.53-3.19A3.65,3.65,0,0,1,25.3,9.75Z"/><path class="cls-5" d="M27.12,13l-.25,0c-.64,0-1,.22-1,.65a.39.39,0,0,0,.4.44C26.77,14,27.1,13.58,27.12,13Zm.82,1.9H27l0-.44a1.43,1.43,0,0,1-1.18.52,1.06,1.06,0,0,1-1-1.17c0-1,.73-1.64,2-1.64l.46,0a.91.91,0,0,0,.05-.28c0-.28-.2-.39-.72-.39a3.86,3.86,0,0,0-1.19.2c0-.08.15-1,.15-1a4.33,4.33,0,0,1,1.35-.23c1,0,1.47.43,1.47,1.25a5.34,5.34,0,0,1-.09.85C28.17,13.21,28,14.53,27.94,14.85Z"/><path class="cls-5" d="M15.23,14.79a2.51,2.51,0,0,1-.81.14.83.83,0,0,1-.89-.94c0-.19.09-.68.16-1.14s.48-2.91.48-2.91h1.12l-.13.65h.57l-.15,1H15c-.13.81-.32,1.82-.32,2s.12.32.39.32a1.21,1.21,0,0,0,.3,0Z"/><path class="cls-5" d="M18.65,14.76a4,4,0,0,1-1.14.17A1.71,1.71,0,0,1,15.6,13c0-1.46.83-2.53,2-2.53A1.43,1.43,0,0,1,19.07,12a4.53,4.53,0,0,1-.14,1.05H16.71c-.08.62.32.87,1,.87a2.59,2.59,0,0,0,1.16-.27ZM18,12.22c0-.08.11-.76-.52-.76-.36,0-.61.27-.72.76Z"/><path class="cls-5" d="M10.91,11.94a1.24,1.24,0,0,0,.85,1.19c.46.21.53.27.53.47s-.2.38-.65.38a3.31,3.31,0,0,1-1-.16s-.15.94-.16,1a5,5,0,0,0,1.17.13c1.19,0,1.74-.45,1.74-1.43a1.17,1.17,0,0,0-.8-1.19c-.47-.21-.52-.26-.52-.46s.18-.35.55-.35a6.31,6.31,0,0,1,.81.06l.16-1a9.17,9.17,0,0,0-1-.08C11.34,10.49,10.9,11.15,10.91,11.94Z"/><path class="cls-5" d="M33.88,14.85H32.82l0-.39a1.31,1.31,0,0,1-1,.47c-.82,0-1.36-.71-1.36-1.77,0-1.42.84-2.62,1.83-2.62a1.28,1.28,0,0,1,1.07.58l.25-1.52h1.11Zm-1.66-1c.53,0,.9-.6.9-1.44,0-.54-.21-.84-.6-.84s-.87.6-.87,1.44Q31.65,13.87,32.22,13.87Z"/><path class="cls-5" d="M29,10.59c-.14,1.32-.39,2.66-.59,4l-.05.28h1.12c.41-2.61.5-3.12,1.13-3A4.15,4.15,0,0,1,31,10.56c-.47-.1-.73.17-1.08.67a3.58,3.58,0,0,0,.07-.64Z"/><path class="cls-5" d="M19.7,10.59c-.14,1.32-.39,2.66-.59,4l-.05.28h1.12c.41-2.61.5-3.12,1.13-3a4.15,4.15,0,0,1,.43-1.24c-.47-.1-.73.17-1.08.67a3.58,3.58,0,0,0,.07-.64Z"/><path class="cls-5" d="M34.38,14.52a.33.33,0,0,1,.66,0,.33.33,0,1,1-.66,0Zm.33.25a.25.25,0,1,0-.25-.25A.25.25,0,0,0,34.71,14.77Zm-.05-.1H34.6v-.3h.12a.12.12,0,0,1,.08,0,.08.08,0,0,1,0,.07.09.09,0,0,1,0,.08l.06.13h-.08l0-.12h-.05Zm0-.17h.09s0,0,0,0a0,0,0,0,0,0,0h-.09Z"/><path class="cls-5" d="M43.45,18.14Z"/><rect class="cls-6" x="41.93" y="0.64" width="37.13" height="22.99"/><path class="cls-6" d="M78.81.89V23.37H42.19V.89H78.81m.51-.51H41.68v23.5H79.32V.38Z"/><path class="cls-5" d="M43,17.21a1.74,1.74,0,0,0,1.87,1.67h34V.78H43V17.21Z"/><path class="cls-6" d="M53.67,4.16l-2.61,7.05-.28-1.43a8.33,8.33,0,0,0-3.7-4.32l2.39,9H52.3L56.5,4.16H53.67"/><polyline class="cls-6" points="55.91 14.5 57.58 4.15 60.26 4.15 58.59 14.5 55.91 14.5"/><path class="cls-6" d="M68.28,4.4A6.65,6.65,0,0,0,65.88,4c-2.64,0-4.5,1.4-4.51,3.41,0,1.49,1.32,2.32,2.34,2.82s1.39.83,1.38,1.28c0,.69-.83,1-1.6,1A5.29,5.29,0,0,1,61,11.94l-.35-.16-.37,2.32a8,8,0,0,0,3,.55c2.8,0,4.63-1.39,4.65-3.54,0-1.17-.7-2.07-2.25-2.81-.93-.48-1.51-.79-1.5-1.28s.49-.89,1.54-.89a4.5,4.5,0,0,1,2,.4l.23.12.37-2.25"/><path class="cls-6" d="M75.13,4.16H73.06a1.32,1.32,0,0,0-1.4.86l-4,9.48H70.5l.56-1.56h3.42c.09.36.33,1.55.33,1.55h2.48L75.13,4.16m-3.3,6.67c.23-.6,1.07-2.89,1.07-2.89s.22-.6.35-1l.18.89s.52,2.47.62,3Z"/><path class="cls-7" d="M48.63,4.15H44.32l0,.18a9,9,0,0,1,6.48,5.45L49.84,5A1.13,1.13,0,0,0,48.63,4.15Z"/><path class="cls-8" d="M107.78,0H83.61V24.26h24.17v-8a.85.85,0,0,0,.14-.53.8.8,0,0,0-.14-.53"/><path class="cls-5" d="M85.79,10.5l-.47-1.13-.46,1.13M96,10.05a.69.69,0,0,1-.34.06h-.82V9.47h.84a.66.66,0,0,1,.32.06.25.25,0,0,1,.14.25A.3.3,0,0,1,96,10.05Zm5.89.45-.47-1.13L101,10.5Zm-11,1.22h-.69V9.5l-1,2.22h-.6l-1-2.22v2.22H86.29L86,11.09H84.62l-.27.63h-.73l1.21-2.84h1L87,11.57V8.88h1.11L89,10.81l.82-1.93h1.13v2.84Zm2.78,0H91.45V8.88h2.27v.59H92.13V10h1.55v.58H92.13v.57h1.59Zm3.2-2.07a.81.81,0,0,1-.48.76.69.69,0,0,1,.34.24.84.84,0,0,1,.11.52v.55H96.2v-.35a.84.84,0,0,0-.11-.56.66.66,0,0,0-.49-.12h-.73v1h-.68V8.88h1.56a1.59,1.59,0,0,1,.83.14A.67.67,0,0,1,96.92,9.65ZM98,11.72h-.7V8.88H98Zm8,0h-1L103.8,9.59v2.13h-1.39l-.26-.63h-1.41l-.26.63h-.79a1.45,1.45,0,0,1-1-.31,1.42,1.42,0,0,1-.36-1.08,1.5,1.5,0,0,1,.37-1.12,1.38,1.38,0,0,1,1-.33h.65v.61h-.64a.64.64,0,0,0-.52.17.92.92,0,0,0-.2.64,1,1,0,0,0,.19.67.65.65,0,0,0,.47.15H100l1-2.24h1l1.15,2.69V8.88h1l1.19,2v-2h.7v2.84Zm-22.44.56h1.16l.26-.63h.59l.26.63h2.28V11.8l.21.48h1.18l.2-.49v.49h5.68v-1h.11c.07,0,.1,0,.1.13v.9h2.93V12a2.32,2.32,0,0,0,1.09.24h1.24l.26-.63h.59l.26.63h2.38v-.6l.36.6h1.9v-4h-1.88v.47l-.27-.47h-1.93v.47l-.25-.47H99.71a2.37,2.37,0,0,0-1.14.23V8.32h-1.8v.23A1.11,1.11,0,0,0,96,8.32H89.41l-.45,1-.45-1H86.43v.47l-.23-.47H84.43l-.82,1.88v2.08Z"/><path class="cls-5" d="M107.78,14.38h-1.24a.44.44,0,0,0-.27,0,.24.24,0,0,0-.1.21.22.22,0,0,0,.15.21.88.88,0,0,0,.26,0H107a1.06,1.06,0,0,1,.77.23l.06.07m0,1.06a1,1,0,0,1-.92.37h-1.31V16h1.3a.43.43,0,0,0,.28-.07.3.3,0,0,0,.08-.19.28.28,0,0,0-.08-.19.4.4,0,0,0-.25-.06c-.63,0-1.43,0-1.43-.88,0-.41.26-.85,1-.85h1.35v-.56h-1.26a1.43,1.43,0,0,0-.85.23v-.23h-1.86a1.28,1.28,0,0,0-.81.23v-.23H99.68v.23a1.79,1.79,0,0,0-.92-.23H96.57v.23a1.56,1.56,0,0,0-1-.23H93.16l-.56.61-.52-.61H88.41v4H92l.58-.62.54.62h2.22v-.93h.21a2.44,2.44,0,0,0,1-.14v1.07h1.83v-1h.08c.12,0,.13,0,.13.12v.92h5.55a1.52,1.52,0,0,0,.92-.26v.26h1.76a2.38,2.38,0,0,0,1-.19v-.74Zm-2.71-1.13a.8.8,0,0,1,.2.6c0,.61-.38.9-1.06.9h-1.33V16h1.32a.43.43,0,0,0,.28-.07.3.3,0,0,0,.08-.19.28.28,0,0,0-.08-.19.42.42,0,0,0-.25-.06c-.63,0-1.43,0-1.43-.88a.85.85,0,0,1,1-.85h1.37v.61h-1.25a.42.42,0,0,0-.27,0,.23.23,0,0,0-.11.21.23.23,0,0,0,.15.21,1,1,0,0,0,.27,0h.36A1.08,1.08,0,0,1,105.07,15.12Zm-6.13-.18a.59.59,0,0,1-.34.06h-.82v-.64h.84a.77.77,0,0,1,.32.05.28.28,0,0,1,.14.26A.3.3,0,0,1,98.94,14.94Zm.41.36a.66.66,0,0,1,.33.24.8.8,0,0,1,.12.51v.57h-.69v-.36c0-.17,0-.42-.11-.55s-.25-.13-.5-.13h-.72v1H97.1V13.77h1.56a1.66,1.66,0,0,1,.82.14.66.66,0,0,1,.35.63A.8.8,0,0,1,99.35,15.3Zm.86-1.53h2.26v.59h-1.59v.52h1.56v.58h-1.56V16h1.59v.59h-2.26Zm-4.59,1.32h-.87v-.73h.88c.25,0,.42.1.42.35S95.88,15.09,95.62,15.09Zm-1.55,1.27L93,15.2l1-1.12ZM91.37,16H89.7v-.57h1.5v-.58H89.7v-.52h1.71l.74.83Zm5.41-1.32c0,.79-.59.95-1.19.95h-.84v1H93.42l-.83-.94-.87.94H89V13.77h2.73l.84.94.86-.94h2.17C96.17,13.77,96.78,13.92,96.78,14.71Z"/><path class="cls-9" d="M149.07.38h-36.6V23.88h36.74V.38Zm-.13,23.24H112.73V.65h36.21Z"/><rect class="cls-5" x="112.73" y="0.65" width="36.21" height="22.97"/><path class="cls-10" d="M131.71,6.35A2.65,2.65,0,1,0,134.41,9,2.66,2.66,0,0,0,131.71,6.35Z"/><path class="cls-11" d="M116.31,6.44h-1.46v5.09h1.45a2.69,2.69,0,0,0,1.82-.59A2.56,2.56,0,0,0,119,9,2.52,2.52,0,0,0,116.31,6.44Zm1.16,3.82a1.89,1.89,0,0,1-1.36.41h-.27V7.3h.27a1.88,1.88,0,0,1,1.36.41,1.75,1.75,0,0,1,0,2.55Z"/><rect class="cls-11" x="119.5" y="6.44" width="0.99" height="5.09"/><path class="cls-11" d="M122.91,8.39c-.59-.22-.77-.36-.77-.64s.31-.56.74-.56a1,1,0,0,1,.8.41l.52-.68a2.25,2.25,0,0,0-1.49-.56,1.49,1.49,0,0,0-1.59,1.45c0,.7.32,1.06,1.25,1.4a3.57,3.57,0,0,1,.69.29.6.6,0,0,1,.3.52.73.73,0,0,1-.78.72,1.18,1.18,0,0,1-1.08-.68l-.64.62a2,2,0,0,0,1.76,1A1.65,1.65,0,0,0,124.38,10C124.38,9.17,124,8.8,122.91,8.39Z"/><path class="cls-11" d="M124.69,9a2.63,2.63,0,0,0,2.68,2.65,2.67,2.67,0,0,0,1.25-.3V10.18a1.61,1.61,0,0,1-1.2.55A1.66,1.66,0,0,1,125.71,9a1.69,1.69,0,0,1,1.66-1.75,1.67,1.67,0,0,1,1.25.57V6.64a2.57,2.57,0,0,0-1.22-.31A2.67,2.67,0,0,0,124.69,9Z"/><polygon class="cls-11" points="136.65 9.86 135.3 6.44 134.21 6.44 136.37 11.66 136.91 11.66 139.1 6.44 138.03 6.44 136.65 9.86"/><polygon class="cls-11" points="139.55 11.53 142.37 11.53 142.37 10.66 140.54 10.66 140.54 9.29 142.3 9.29 142.3 8.43 140.54 8.43 140.54 7.3 142.37 7.3 142.37 6.44 139.55 6.44 139.55 11.53"/><path class="cls-11" d="M146.29,7.94c0-1-.65-1.5-1.8-1.5H143v5.09h1v-2h.13l1.38,2h1.21l-1.6-2.15A1.35,1.35,0,0,0,146.29,7.94Zm-2,.84H144V7.24h.31c.62,0,1,.26,1,.76S144.94,8.78,144.3,8.78Z"/><path class="cls-9" d="M147,6.82c0-.09-.06-.14-.17-.14h-.14v.45h.1V7l.13.17H147l-.15-.19A.11.11,0,0,0,147,6.82Zm-.18.06h0V6.76h0c.05,0,.07,0,.07.06S146.86,6.88,146.81,6.88Z"/><path class="cls-9" d="M146.84,6.51a.4.4,0,0,0,0,.79.4.4,0,0,0,0-.79Zm0,.72a.33.33,0,1,1,.31-.32A.32.32,0,0,1,146.84,7.23Z"/><path class="cls-9" d="M123.74,12.86l1.33,1.39V12.94h.19v1.77l-1.33-1.38v1.31h-.19Z"/><path class="cls-9" d="M123.72,12.86v1.79H124V13.37l1.33,1.39V12.92h-.23v1.29l-1.33-1.39Zm0,.05,1.33,1.39V13h.15v1.72l-1.33-1.39v1.34h-.15Z"/><path class="cls-9" d="M126.18,12.94h.88v.17h-.69v.51H127v.17h-.67v.67h.69v.18h-.88Z"/><path class="cls-9" d="M127.06,12.92h-.9v1.73h.92v-.21h-.7v-.63h.68V13.6h-.68v-.47h.7v-.21Zm0,0v.14h-.69v.54H127v.14h-.67v.71H127v.14h-.85V13Z"/><path class="cls-9" d="M128.4,14.64h-.19V13.11h-.41v-.17h1v.17h-.41Z"/><path class="cls-9" d="M128.81,12.92h-1v.21h.41v1.52h.22V13.13h.42v-.21Zm0,0v.14h-.41v1.53h-.15V13.09h-.42V13Z"/><path class="cls-9" d="M130.08,14.21l.55-1.36.55,1.36.45-1.27h.2l-.65,1.78-.55-1.37-.55,1.37-.65-1.78h.2Z"/><path class="cls-9" d="M130.61,12.84l-.53,1.32-.43-1.24h-.25l.68,1.86.55-1.38.55,1.38.68-1.86h-.24l-.44,1.24-.55-1.36Zm-.51,1.38.53-1.33.55,1.37.46-1.31h.17l-.63,1.72-.55-1.36-.55,1.36L129.45,13h.17l.46,1.31Z"/><path class="cls-9" d="M134.28,13.79a.89.89,0,1,1-.88-.88A.88.88,0,0,1,134.28,13.79Zm-1.58,0a.7.7,0,1,0,.7-.71A.7.7,0,0,0,132.7,13.79Z"/><path class="cls-9" d="M132.49,13.79a.91.91,0,1,0,.91-.9A.9.9,0,0,0,132.49,13.79Zm0,0a.87.87,0,1,1,.87.86A.87.87,0,0,1,132.53,13.79Z"/><path class="cls-9" d="M132.68,13.79a.72.72,0,1,0,.72-.73A.72.72,0,0,0,132.68,13.79Zm0,0a.68.68,0,1,1,.68.68A.68.68,0,0,1,132.72,13.79Z"/><path class="cls-9" d="M135.29,14.64h-.18v-1.7h.24c.33,0,.62.08.62.46a.43.43,0,0,1-.42.47l.54.77h-.23l-.52-.75h-.05Zm0-.92h.06c.22,0,.43,0,.43-.3s-.2-.31-.43-.31h-.06Z"/><path class="cls-9" d="M135.11,12.92h0v1.73h.22v-.74h0l.5.74h.29s-.53-.73-.55-.77a.45.45,0,0,0,.41-.48c0-.32-.21-.48-.64-.48Zm.24,0c.41,0,.61.15.61.45a.43.43,0,0,1-.41.46h0l.54.76h-.2l-.5-.74h-.08v.75h-.16V13Z"/><path class="cls-9" d="M135.29,13.09h0v.65h.07c.21,0,.45,0,.45-.32s-.23-.33-.45-.33Zm.06,0c.22,0,.42,0,.42.29s-.21.28-.42.28h0v-.57Z"/><path class="cls-9" d="M137.81,12.94h.25l-.8.79.83.91h-.26l-.7-.78,0,0v.74h-.19v-1.7h.19v.72Z"/><path class="cls-9" d="M138.06,12.92h-.26l-.7.7v-.7h-.22v1.73h.22V13.9l0,0,.68.77h.32l-.84-.92.81-.81Zm0,0-.78.78.81.89h-.22l-.69-.78h0l-.06.06v.73h-.16V13h.16v.76l.74-.76Z"/><path class="cls-12" d="M148.94,13.44s-10,7-28.22,10.18h28.22Z"/><rect class="cls-13" x="153.43" y="0.63" width="36.42" height="23"/><path class="cls-14" d="M189.59.88v22.5H153.68V.88h35.91m.5-.5H153.18v23.5h36.91V.38Z"/><path class="cls-15" d="M177,11.24a1.91,1.91,0,0,1-1.17.31h-.23a.29.29,0,0,1-.29-.36l.28-1.2a.49.49,0,0,1,.45-.36h.3a1.47,1.47,0,0,1,.81.18.63.63,0,0,1,.27.56A1,1,0,0,1,177,11.24Zm2-1.86a1.39,1.39,0,0,0-.51-.54,2.23,2.23,0,0,0-.81-.3,5.89,5.89,0,0,0-1.1-.09h-1.94a.47.47,0,0,0-.44.36l-1.32,5.69a.28.28,0,0,0,.28.35h.94a.47.47,0,0,0,.44-.35l.32-1.38a.49.49,0,0,1,.45-.36h.26a4.4,4.4,0,0,0,2.66-.7,2.18,2.18,0,0,0,1-1.84,1.8,1.8,0,0,0-.18-.84"/><path class="cls-15" d="M181.81,13.59a2.27,2.27,0,0,1-.48.27,1.37,1.37,0,0,1-.49.11,1.22,1.22,0,0,1-.53-.1.38.38,0,0,1-.18-.35.68.68,0,0,1,.14-.46.86.86,0,0,1,.39-.26,3,3,0,0,1,.62-.14l.77-.08Zm-.29,1.26h1.17a.47.47,0,0,0,.44-.35l.68-2.93a1.5,1.5,0,0,0,0-.24c0-.1,0-.17,0-.23a1,1,0,0,0-.53-.92,3.55,3.55,0,0,0-1.66-.29,8.59,8.59,0,0,0-1.13.08c-.38.06-.65.11-.84.16l-.15.8c0,.19,0,.35.07.35l.69-.21a3,3,0,0,1,.84-.13,2.26,2.26,0,0,1,.84.12.42.42,0,0,1,.28.42.53.53,0,0,1,0,.13.51.51,0,0,0,0,.09c-.53,0-1,.08-1.49.14a4.58,4.58,0,0,0-1.18.33,1.84,1.84,0,0,0-.8.63,1.7,1.7,0,0,0-.27,1,1.13,1.13,0,0,0,.38.88,1.41,1.41,0,0,0,1,.34,2.94,2.94,0,0,0,.59-.05,4.16,4.16,0,0,0,.45-.16,3.05,3.05,0,0,0,.38-.21l.35-.23-.12.51"/><path class="cls-15" d="M186.84,8.5l-1.33,6a.47.47,0,0,1-.44.35h-.83a.27.27,0,0,1-.28-.35l1.24-5.64a.49.49,0,0,1,.45-.36h1.19"/><path class="cls-16" d="M160.54,11.25a1.87,1.87,0,0,1-1.17.31h-.23a.27.27,0,0,1-.28-.35l.28-1.21a.47.47,0,0,1,.44-.36h.31a1.37,1.37,0,0,1,.8.19.59.59,0,0,1,.28.55A1,1,0,0,1,160.54,11.25Zm2-1.86a1.32,1.32,0,0,0-.51-.54,2.38,2.38,0,0,0-.8-.3,6,6,0,0,0-1.1-.09H158.2a.49.49,0,0,0-.45.36l-1.31,5.69a.27.27,0,0,0,.28.35h.93a.49.49,0,0,0,.45-.35l.32-1.38a.47.47,0,0,1,.44-.36h.27a4.42,4.42,0,0,0,2.65-.69,2.17,2.17,0,0,0,.95-1.85,1.8,1.8,0,0,0-.18-.84"/><path class="cls-16" d="M165.4,13.6a2.34,2.34,0,0,1-.49.27,1.28,1.28,0,0,1-.48.11,1.06,1.06,0,0,1-.53-.1.38.38,0,0,1-.18-.35.74.74,0,0,1,.13-.46.9.9,0,0,1,.4-.26,2.9,2.9,0,0,1,.61-.14l.77-.08Zm-.29,1.26h1.17a.48.48,0,0,0,.44-.35l.68-2.93a1.45,1.45,0,0,0,0-.25,1.86,1.86,0,0,0,0-.22,1,1,0,0,0-.53-.92,3.62,3.62,0,0,0-1.66-.29,7,7,0,0,0-1.12.08c-.38.06-.66.11-.84.16l-.16.8c0,.19,0,.35.07.35l.69-.21a3.45,3.45,0,0,1,.84-.13,2.29,2.29,0,0,1,.85.12.43.43,0,0,1,.28.42s0,.09,0,.13a.18.18,0,0,0,0,.09c-.54,0-1,.08-1.49.14a4.47,4.47,0,0,0-1.18.33,1.85,1.85,0,0,0-.8.63,1.7,1.7,0,0,0-.27,1,1.1,1.1,0,0,0,.38.88,1.39,1.39,0,0,0,1,.34A2.82,2.82,0,0,0,164,15a3.52,3.52,0,0,0,.45-.16,2.08,2.08,0,0,0,.38-.21l.35-.23-.11.51"/><path class="cls-16" d="M172.19,9.89a.81.81,0,0,0-.59.35L170,13.06l-.45-2.81a.49.49,0,0,0-.45-.36h-.83a.28.28,0,0,0-.28.36l.72,4.65c0,.1,0,.18,0,.26l-.9,1.49c-.12.2-.05.36.15.36h1a.77.77,0,0,0,.58-.36l4-6.76Z"/></g></g></svg>