<svg xmlns="http://www.w3.org/2000/svg" viewBox="0 0 62.36 62.36"><defs><style>.cls-1{fill:#fff;}.cls-2{fill:#0b8944;}</style></defs><title>taan</title><g id="Layer_2" data-name="Layer 2"><g id="Layer_1-2" data-name="Layer 1"><rect class="cls-1" width="62.36" height="62.36"/><path class="cls-2" d="M10.11,34.53l-.26,0v.1a.94.94,0,0,1,.06.15,18,18,0,0,0,1.4,3.9A17.74,17.74,0,0,0,16,44.54a17.5,17.5,0,0,0,5.8,3.22,17.72,17.72,0,0,0,6.26.89,17.37,17.37,0,0,0,3.14-.37A18,18,0,0,0,44.58,36.09c.15-.5.27-1,.42-1.56Zm26.66,8.89a6.68,6.68,0,0,1-4.69,2.86c-.87.11-1.76.09-2.64.13a.13.13,0,0,0,0-.06,17.53,17.53,0,0,1-2.05,0c-1.11-.11-2.21-.29-3.3-.48-1.61-.28-3.22-.59-4.83-.89l-.21,0c-.24-.06-.33-.19-.28-.41a4.87,4.87,0,0,0,0-2.37,2.75,2.75,0,0,1,.09-1.63,13.56,13.56,0,0,1,1.54-3.24c.51-.71.4-.62,1.12-.39a22,22,0,0,0,5,.91,21.24,21.24,0,0,0,3.74,0c1-.1,1.9-.28,2.85-.44.33,0,.42,0,.52.31a5.58,5.58,0,0,0,1.92,2.83,3.7,3.7,0,0,1,1.37,2.63A.37.37,0,0,1,36.77,43.42Z"/><path class="cls-2" d="M24.41,13a17.46,17.46,0,0,0-11.62,7.28,17.34,17.34,0,0,0-2.86,6.32h35A17.89,17.89,0,0,0,24.41,13ZM33.86,23H33v2.79c-.25-.13-.46-.22-.65-.34s-.07-.15-.08-.22V24H30.39c0,.18,0,.34,0,.5s-.05.22-.11.24a.35.35,0,0,1-.3,0,5.2,5.2,0,0,1-.61-.63.26.26,0,0,1,.18-.44,1,1,0,0,1,.24,0h2.42V23H27.65v2.77c-.24-.13-.44-.22-.62-.34a.33.33,0,0,1-.07-.23c0-.64,0-1.28,0-1.92V23h-.9c-.28,0-.56,0-.83,0S25,23,25,23.16s0,.47,0,.71,0,.3-.3.32c-.51,0-1,0-1.51.1a1,1,0,0,0-.43.19.36.36,0,0,0,.06.68,2.07,2.07,0,0,0,1.2.17c.45-.06.88-.17,1.32-.26.16,0,.3,0,.57.35-.4.09-.77.22-1.14.27a3.46,3.46,0,0,1-1.88-.22,1.63,1.63,0,0,1-.49-.29.72.72,0,0,1,.25-1.28,6.37,6.37,0,0,1,1.39-.18c.17,0,.23,0,.23-.19s0-.36,0-.58h-2.5c-.12,0-.23,0-.24-.17s.1-.18.23-.18H33.86c.14,0,.23,0,.23.19S34,23,33.86,23Zm5.24-1.31c0,.29-.06.5-.08.74l-.67-.1a.18.18,0,0,1-.06-.15c.07-1-.17-1-.93-1.27a1.71,1.71,0,0,0-1.64.08A1.37,1.37,0,0,0,35,22.05c0,.21-.09.39-.32.44s-.39-.08-.46-.33A1.68,1.68,0,0,0,31.94,21a1.51,1.51,0,0,0-.7.62c-.27.47-.4.49-.84.15a3.83,3.83,0,0,0-4.13-.4,5.39,5.39,0,0,0-1,.7l-.49-.48A4.59,4.59,0,0,1,30.7,21a2.36,2.36,0,0,1,1.93-.93,2.43,2.43,0,0,1,1.93.93,2.66,2.66,0,0,1,2-1.15,8.35,8.35,0,0,0-.56-.69,3.61,3.61,0,0,0-1.78-.88,7.64,7.64,0,0,1-2.07-.79,3.38,3.38,0,0,0-1.61-.5,3,3,0,0,0-1.34.35c-.35.17-.51.11-.68-.24a2.33,2.33,0,0,0-3.45-.89,2.56,2.56,0,0,0-.46.47.54.54,0,0,1-.58.27,2.46,2.46,0,0,0-2.18.84,2.19,2.19,0,0,0-.29.39l1.5.88c-.17.23-.31.42-.46.64l-.52-.34a3.24,3.24,0,0,0-2.17-.6A5.86,5.86,0,0,0,17,20c-.36.28-.71.57-1.09.88l-.49-.56.82-.7a6.85,6.85,0,0,1,3.41-1.59,5.46,5.46,0,0,1,1,0,.31.31,0,0,0,.32-.16,3.24,3.24,0,0,1,2.95-1.69.45.45,0,0,0,.3-.12,3.09,3.09,0,0,1,4.89.39s0,.05,0,.05a12.89,12.89,0,0,1,1.3-.25,3.15,3.15,0,0,1,1.84.44,10.91,10.91,0,0,0,2.55,1A3.67,3.67,0,0,1,37.43,20a.38.38,0,0,0,.23.2,10.09,10.09,0,0,1,3.43,2.09l.15.17c-.19.16-.36.32-.54.46Z"/><path class="cls-2" d="M40.74,7.17,37.38,14.4l-4-1.73.52-1.55c.65-1.94,1.29-3.87,2-5.81.08-.23,0-.29-.2-.34a47.1,47.1,0,0,0-5.4-1c-1.21-.14-2.43-.26-3.65-.37a58.3,58.3,0,0,0-6.48-.19c-.69,0-1.38.07-2.08.07a5.59,5.59,0,0,1,.78-.28c1.09-.25,2.17-.54,3.27-.71C23.54,2.27,25,2.13,26.39,2c.9-.08,1.8-.12,2.7-.14s2.05,0,3.07,0c1.28.06,2.55.18,3.82.31a21.48,21.48,0,0,1,4.34.91,22.19,22.19,0,0,1,8.29,4.66C49.8,8.84,50.89,10,52,11.22a2.25,2.25,0,0,1,.52,1.5,3.9,3.9,0,0,1-1.46,3,6.8,6.8,0,0,1-.6.46c-.17.14-.27.12-.41-.07-.74-1-1.47-2-2.26-2.95a24.53,24.53,0,0,0-5.41-5.06C41.85,7.81,41.3,7.51,40.74,7.17Z"/><path class="cls-2" d="M42.54,33.7H41.35c-.05,0-.12-.09-.16-.14-.78-1.21-1.55-2.42-2.32-3.63a.42.42,0,0,0-.19-.18v3.94H37.53V27.55h1.16c.06,0,.13.1.17.17l2.32,3.66a.66.66,0,0,0,.2.21v-4h1.16Z"/><path class="cls-2" d="M16.39,60.5c.06-.27.11-.54.17-.81a55.61,55.61,0,0,1,2.8-9.21A9.68,9.68,0,0,1,20,49.13a1.09,1.09,0,0,1,1.24-.57.82.82,0,0,1,.7.81,3,3,0,0,1-.15,1,51.23,51.23,0,0,1-4.66,9.12c-.16.26-.32.52-.49.78-.05.08-.11.14-.16.21Z"/><path class="cls-2" d="M25.58,33.57l-2.43-5.88a.36.36,0,0,0-.23-.14c-.31,0-.61,0-.92,0a.33.33,0,0,0-.37.24q-1.12,2.84-2.26,5.67a2.3,2.3,0,0,0-.09.25h1.14a.23.23,0,0,0,.26-.18c.13-.35.27-.7.39-1.05a.26.26,0,0,1,.29-.2h2.13a.27.27,0,0,1,.3.2q.2.52.42,1.05c0,.07.1.16.16.16.41,0,.82,0,1.25,0Zm-4-2.3c.29-.76.56-1.5.84-2.23h.06l.88,2.24Z"/><path class="cls-2" d="M34.39,33.59c-.81-2-1.63-3.93-2.45-5.89a.32.32,0,0,0-.22-.15c-.33,0-.65,0-1,0a.29.29,0,0,0-.31.22q-1.05,2.65-2.12,5.29l-.25.65h1.16c.14,0,.2-.06.25-.19.12-.35.26-.69.38-1a.25.25,0,0,1,.27-.2h2.19a.24.24,0,0,1,.26.18q.2.54.42,1.08a.33.33,0,0,0,.17.16H34.4A.34.34,0,0,0,34.39,33.59Zm-4.07-2.32c.29-.77.57-1.5.84-2.23h.07l.87,2.24Z"/><path class="cls-2" d="M17.29,28.57H15.68c-.23,0-.29.07-.29.29,0,1.5,0,3,0,4.48,0,.42,0,.36-.38.37h-.88V28.57H12.82c-.57,0-.58,0-.57-.57s-.07-.45.45-.45H17c.23,0,.3.07.28.3S17.29,28.31,17.29,28.57Z"/><path class="cls-2" d="M33,38l.74,1.57a2,2,0,0,0-1,1.37,4.06,4.06,0,0,0-.12.91,17,17,0,0,1-.42,2.92s0,0,0,.05a3.27,3.27,0,0,0-3.81-1.11,2.49,2.49,0,0,0-1,1,3.75,3.75,0,0,0-2.55-2,3.79,3.79,0,0,0-3.21.63c-.15-.16-.28-.31-.43-.45a2.19,2.19,0,0,0-1.61-.68c-.19,0-.23-.11-.22-.23a3.85,3.85,0,0,1,.07-1.13,12.29,12.29,0,0,1,1.52-3.24.28.28,0,0,1,.37-.13,20,20,0,0,0,5.21.95,28.85,28.85,0,0,0,3.08.07c1.11-.06,2.21-.28,3.32-.43Z"/><path class="cls-2" d="M27,45.79l-4.93-.91c-.07-.35-.13-.67-.18-1,0,0,.05-.13.09-.17a2.66,2.66,0,0,1,1.53-.57,3.66,3.66,0,0,1,1.82.29,3,3,0,0,1,1.62,2A3.61,3.61,0,0,1,27,45.79Z"/><path class="cls-2" d="M32,45.75H27.62a1.78,1.78,0,0,1,1.66-1.69,2.59,2.59,0,0,1,2.52,1.31C31.86,45.47,31.9,45.58,32,45.75Z"/><path class="cls-2" d="M32.66,45.55c.12-.65.25-1.31.35-2s.11-1.22.19-1.83a5.5,5.5,0,0,1,.24-1,2.49,2.49,0,0,1,.42-.56l.09,0c0,.11,0,.21,0,.32,0,1.43.07,2.87.11,4.3,0,.18,0,.3-.21.36l-1.15.47Z"/><path class="cls-2" d="M34.56,40.54a3.4,3.4,0,0,1,1.67,2.34.45.45,0,0,1-.09.43,5.81,5.81,0,0,1-1.47,1.36Z"/><path class="cls-2" d="M21.38,44.77l-1.93-.36V42.77A1.93,1.93,0,0,1,21.38,44.77Z"/></g></g></svg>