<?xml version="1.0" encoding="utf-8"?>
<!-- Generator: Adobe Illustrator 23.0.3, SVG Export Plug-In . SVG Version: 6.00 Build 0)  -->
<svg version="1.1" id="Layer_1" xmlns="http://www.w3.org/2000/svg" xmlns:xlink="http://www.w3.org/1999/xlink" x="0px" y="0px"
	 viewBox="0 0 512 512" style="enable-background:new 0 0 512 512;" xml:space="preserve">
<style type="text/css">
	.st0{fill:#FFFFFF;}
	.st1{fill:#F78200;}
</style>
<path class="st0" d="M490.3,345.8c-0.1-2.8-1.3-5.4-3.4-7.3l-22.1-20.3c-1.9-1.8-4.5-2.8-7.1-2.8c-0.2,0-0.3,0-0.5,0
	c-2.8,0.1-5.4,1.3-7.3,3.4l-12.4,13.5c-17.8-14.9-40.7-23.9-65.6-23.9c-29.1,0-55.3,12.2-74,31.7h-54.7v-18.7
	c12.9-3.1,25.4-8.1,36-16.4c1.2-0.9,11.1-8.3,14.6-11.4c14.3-12.7,24.7-40.1,27-50.8h9.9c15.4,0,27.9-12.2,27.9-27.2v-23.9
	c0-15-12.5-27.2-27.9-27.2h-7.6V80.5c0-29.6-24.2-53.7-53.9-53.7c-7.7,0-15.1,1.6-21.7,4.5C237,11.3,216.3,0,188,0h-24.8
	c-42.4,0-76.9,34.4-76.9,76.6v88.1h-7.6c-15.4,0-27.9,12.2-27.9,27.2v23.9c0,15,12.5,27.2,27.9,27.2h9.9
	c8.4,38.5,38.8,69.1,77.6,78.6v18.7H78.2c-31.2,0-56.6,24.8-56.6,55.4v70.8c0,7.6,6.3,13.9,14,13.9H87c4.1,0,7.5-3.4,7.5-7.5
	s-3.4-7.5-7.5-7.5H36.7v-69.7c0-22.3,18.6-40.4,41.6-40.4h68.2c6.1,26.5,30.1,45.8,58.4,45.8s52.3-19.3,58.4-45.8h23
	c-10.3,15.9-16.3,34.8-16.3,55.1c0,20.2,6,39.1,16.2,55H122c-4.1,0-7.5,3.4-7.5,7.5s3.4,7.5,7.5,7.5h175.9
	c18.6,19.5,44.9,31.7,74,31.7c56.3,0,102.1-45.6,102.1-101.7c0-12.4-2.2-24.3-6.3-35.2l19.9-21.7
	C489.5,351.3,490.5,348.6,490.3,345.8z M269.3,41.7c21.5,0,38.9,17.4,38.9,38.8v27.3c-5.5-7.5-12.5-14-20.9-19.4
	c-9-5.9-19.6-10.4-31.5-13.7v-7c0-8.1-0.9-15.6-2.7-22.4C258,43,263.5,41.7,269.3,41.7z M101.4,76.6c0-34,27.8-61.6,61.9-61.6H188
	c34,0,52.8,18.7,52.8,52.7v3.7c-11-1.9-23-2.8-36-2.8c-34.5,0-62.3,6.7-82.5,19.8c-8.5,5.5-15.4,12-20.9,19.4V76.6z M372,497
	c-48,0-87.1-38.9-87.1-86.7s39.1-86.7,87.1-86.7c21.1,0,40.4,7.5,55.5,20l-3.9,4.2l-1.2,1.4L378,397.6l0,0l-5.8,6.3L341.5,370
	c-2-2.2-4.8-3.5-7.8-3.5c-2.6,0-5.1,1-7.1,2.7l-22.2,20.2c-2.1,1.9-3.3,4.5-3.4,7.3c-0.1,2.8,0.8,5.5,2.7,7.6l49.6,54.6
	c4.8,5.3,11.7,8.3,18.9,8.4c7.1,0,14-3,18.8-8.3l65.1-71.1c1.9,7.2,3,14.7,3,22.5C459.1,458.1,420,497,372,497z"/>
<path class="st1" d="M456.1,387.8c1.9,7.2,3,14.7,3,22.5c0,47.8-39.1,86.7-87.1,86.7c-48,0-87.1-38.9-87.1-86.7s39.1-86.7,87.1-86.7
	c21.1,0,40.4,7.5,55.5,20l-3.9,4.2l-1.2,1.4L378,397.6l0,0l-5.8,6.3L341.5,370c-2-2.2-4.8-3.5-7.8-3.5c-2.6,0-5.1,1-7.1,2.7
	l-22.2,20.2c-2.1,1.9-3.3,4.5-3.4,7.3c-0.1,2.8,0.8,5.5,2.7,7.6l49.6,54.6c4.8,5.3,11.7,8.3,18.9,8.4c7.1,0,14-3,18.8-8.3
	L456.1,387.8z"/>
<path class="st1" d="M195.3,173.5c-4.1,0-7.5,3.4-7.5,7.5v31c0,7.5,6.2,13.6,13.7,13.6H215c4.1,0,7.5-3.4,7.5-7.5s-3.4-7.5-7.5-7.5
	h-12.1V181C202.8,176.8,199.5,173.5,195.3,173.5z"/>
<path class="st1" d="M137.9,167.2v22c0,4.1,3.4,7.5,7.5,7.5c4.1,0,7.5-3.4,7.5-7.5v-22c0-4.1-3.4-7.5-7.5-7.5
	C141.2,159.7,137.9,163.1,137.9,167.2z"/>
<path class="st1" d="M256.7,167.2v22c0,4.1,3.4,7.5,7.5,7.5s7.5-3.4,7.5-7.5v-22c0-4.1-3.4-7.5-7.5-7.5S256.7,163.1,256.7,167.2z"/>
<path class="st1" d="M173.4,245c-1.7-3.8-6.2-5.4-9.9-3.7c-3.8,1.7-5.4,6.2-3.7,9.9c8,17.6,25.7,28.9,45.1,28.9
	c19.4,0,37.1-11.4,45.1-28.9c1.7-3.8,0.1-8.2-3.7-9.9s-8.2-0.1-9.9,3.7c-5.6,12.2-17.9,20.2-31.4,20.2
	C191.3,265.2,179,257.3,173.4,245L173.4,245z"/>
</svg>
